<svg preserveAspectRatio="none" overflow="visible" style="display: block;" width="391.042" height="395.179" viewBox="0 0 391.042 395.179" fill="none" xmlns="http://www.w3.org/2000/svg">
<g id="Group" opacity="0.25">
<path id="Vector" d="M155.468 178.513H147.192V186.871H155.468V178.513Z" fill="#005C84"/>
<path id="Vector_2" d="M165.317 178.513H157.042V186.871H165.317V178.513Z" fill="#005C84"/>
<path id="Vector_3" d="M145.659 168.621H137.385V176.979H145.659V168.621Z" fill="#005C84"/>
<path id="Vector_4" d="M155.468 168.621H147.192V176.979H155.468V168.621Z" fill="#005C84"/>
<path id="Vector_5" d="M165.317 168.621H157.042V176.979H165.317V168.621Z" fill="#005C84"/>
<path id="Vector_6" d="M371.43 168.621H363.154V176.979H371.43V168.621Z" fill="#005C84"/>
<path id="Vector_7" d="M135.855 158.692H127.58V167.05H135.855V158.692Z" fill="#005C84"/>
<path id="Vector_8" d="M145.659 158.692H137.385V167.05H145.659V158.692Z" fill="#005C84"/>
<path id="Vector_9" d="M155.468 158.692H147.192V167.05H155.468V158.692Z" fill="#005C84"/>
<path id="Vector_10" d="M165.317 158.692H157.042V167.05H165.317V158.692Z" fill="#005C84"/>
<path id="Vector_11" d="M175.125 158.692H166.851V167.05H175.125V158.692Z" fill="#005C84"/>
<path id="Vector_12" d="M351.775 158.692H343.5V167.05H351.775V158.692Z" fill="#005C84"/>
<path id="Vector_13" d="M361.621 158.692H353.347V167.05H361.621V158.692Z" fill="#005C84"/>
<path id="Vector_14" d="M371.43 158.692H363.154V167.05H371.43V158.692Z" fill="#005C84"/>
<path id="Vector_15" d="M381.238 158.692H372.964V167.05H381.238V158.692Z" fill="#005C84"/>
<path id="Vector_16" d="M126.025 148.779H117.75V157.116H126.025V148.779Z" fill="#005C84"/>
<path id="Vector_17" d="M135.855 148.779H127.58V157.116H135.855V148.779Z" fill="#005C84"/>
<path id="Vector_18" d="M145.659 148.779H137.385V157.116H145.659V148.779Z" fill="#005C84"/>
<path id="Vector_19" d="M155.468 148.779H147.192V157.116H155.468V148.779Z" fill="#005C84"/>
<path id="Vector_20" d="M165.317 148.779H157.042V157.116H165.317V148.779Z" fill="#005C84"/>
<path id="Vector_21" d="M175.125 148.779H166.851V157.116H175.125V148.779Z" fill="#005C84"/>
<path id="Vector_22" d="M184.93 148.779H176.654V157.116H184.93V148.779Z" fill="#005C84"/>
<path id="Vector_23" d="M341.968 148.779H333.692V157.116H341.968V148.779Z" fill="#005C84"/>
<path id="Vector_24" d="M351.775 148.779H343.5V157.116H351.775V148.779Z" fill="#005C84"/>
<path id="Vector_25" d="M361.621 148.779H353.347V157.116H361.621V148.779Z" fill="#005C84"/>
<path id="Vector_26" d="M371.43 148.779H363.154V157.116H371.43V148.779Z" fill="#005C84"/>
<path id="Vector_27" d="M381.238 148.779H372.964V157.116H381.238V148.779Z" fill="#005C84"/>
<path id="Vector_28" d="M116.218 138.85H107.942V147.208H116.218V138.85Z" fill="#005C84"/>
<path id="Vector_29" d="M126.025 138.85H117.75V147.208H126.025V138.85Z" fill="#005C84"/>
<path id="Vector_30" d="M135.855 138.85H127.58V147.208H135.855V138.85Z" fill="#005C84"/>
<path id="Vector_31" d="M145.659 138.85H137.385V147.208H145.659V138.85Z" fill="#005C84"/>
<path id="Vector_32" d="M155.468 138.85H147.192V147.208H155.468V138.85Z" fill="#005C84"/>
<path id="Vector_33" d="M165.317 138.85H157.042V147.208H165.317V138.85Z" fill="#005C84"/>
<path id="Vector_34" d="M175.125 138.85H166.851V147.208H175.125V138.85Z" fill="#005C84"/>
<path id="Vector_35" d="M184.93 138.85H176.654V147.208H184.93V138.85Z" fill="#005C84"/>
<path id="Vector_36" d="M194.738 138.85H186.464V147.208H194.738V138.85Z" fill="#005C84"/>
<path id="Vector_37" d="M37.7002 386.821H29.4258V395.179H37.7002V386.821Z" fill="#005C84"/>
<path id="Vector_38" d="M47.5303 386.821H39.2559V395.179H47.5303V386.821Z" fill="#005C84"/>
<path id="Vector_39" d="M57.334 386.821H49.0596V395.179H57.334V386.821Z" fill="#005C84"/>
<path id="Vector_40" d="M67.1426 386.821H58.8672V395.179H67.1426V386.821Z" fill="#005C84"/>
<path id="Vector_41" d="M76.9463 386.821H68.6709V395.179H76.9463V386.821Z" fill="#005C84"/>
<path id="Vector_42" d="M135.851 386.821H127.575V395.179H135.851V386.821Z" fill="#005C84"/>
<path id="Vector_43" d="M145.659 386.821H137.389V395.179H145.659V386.821Z" fill="#005C84"/>
<path id="Vector_44" d="M155.468 386.821H147.192V395.179H155.468V386.821Z" fill="#005C84"/>
<path id="Vector_45" d="M165.317 386.821H157.042V395.179H165.317V386.821Z" fill="#005C84"/>
<path id="Vector_46" d="M175.121 386.821H166.847V395.179H175.121V386.821Z" fill="#005C84"/>
<path id="Vector_47" d="M234.01 386.821H225.734V395.179H234.01V386.821Z" fill="#005C84"/>
<path id="Vector_48" d="M243.813 386.821H235.538V395.179H243.813V386.821Z" fill="#005C84"/>
<path id="Vector_49" d="M253.639 386.821H245.363V395.179H253.639V386.821Z" fill="#005C84"/>
<path id="Vector_50" d="M263.45 386.821H255.176V395.179H263.45V386.821Z" fill="#005C84"/>
<path id="Vector_51" d="M273.256 386.821H264.98V395.179H273.256V386.821Z" fill="#005C84"/>
<path id="Vector_52" d="M332.139 386.821H323.863V395.179H332.139V386.821Z" fill="#005C84"/>
<path id="Vector_53" d="M341.968 386.821H333.692V395.179H341.968V386.821Z" fill="#005C84"/>
<path id="Vector_54" d="M351.775 386.821H343.5V395.179H351.775V386.821Z" fill="#005C84"/>
<path id="Vector_55" d="M361.621 386.821H353.347V395.179H361.621V386.821Z" fill="#005C84"/>
<path id="Vector_56" d="M371.43 386.821H363.154V395.179H371.43V386.821Z" fill="#005C84"/>
<path id="Vector_57" d="M37.7002 376.909H29.4258V385.246H37.7002V376.909Z" fill="#005C84"/>
<path id="Vector_58" d="M47.5303 376.909H39.2559V385.246H47.5303V376.909Z" fill="#005C84"/>
<path id="Vector_59" d="M57.334 376.909H49.0596V385.246H57.334V376.909Z" fill="#005C84"/>
<path id="Vector_60" d="M67.1426 376.909H58.8672V385.246H67.1426V376.909Z" fill="#005C84"/>
<path id="Vector_61" d="M76.9502 376.909H68.6758V385.246H76.9502V376.909Z" fill="#005C84"/>
<path id="Vector_62" d="M135.855 376.909H127.58V385.246H135.855V376.909Z" fill="#005C84"/>
<path id="Vector_63" d="M145.659 376.909H137.385V385.246H145.659V376.909Z" fill="#005C84"/>
<path id="Vector_64" d="M155.468 376.909H147.192V385.246H155.468V376.909Z" fill="#005C84"/>
<path id="Vector_65" d="M165.317 376.909H157.042V385.246H165.317V376.909Z" fill="#005C84"/>
<path id="Vector_66" d="M175.125 376.909H166.851V385.246H175.125V376.909Z" fill="#005C84"/>
<path id="Vector_67" d="M234.01 376.909H225.734V385.246H234.01V376.909Z" fill="#005C84"/>
<path id="Vector_68" d="M243.813 376.909H235.538V385.246H243.813V376.909Z" fill="#005C84"/>
<path id="Vector_69" d="M253.643 376.909H245.367V385.246H253.643V376.909Z" fill="#005C84"/>
<path id="Vector_70" d="M263.45 376.909H255.176V385.246H263.45V376.909Z" fill="#005C84"/>
<path id="Vector_71" d="M273.256 376.909H264.98V385.246H273.256V376.909Z" fill="#005C84"/>
<path id="Vector_72" d="M332.139 376.909H323.863V385.246H332.139V376.909Z" fill="#005C84"/>
<path id="Vector_73" d="M341.968 376.909H333.692V385.246H341.968V376.909Z" fill="#005C84"/>
<path id="Vector_74" d="M351.775 376.909H343.5V385.246H351.775V376.909Z" fill="#005C84"/>
<path id="Vector_75" d="M361.621 376.909H353.347V385.246H361.621V376.909Z" fill="#005C84"/>
<path id="Vector_76" d="M371.43 376.909H363.154V385.246H371.43V376.909Z" fill="#005C84"/>
<path id="Vector_77" d="M37.7002 366.979H29.4258V375.337H37.7002V366.979Z" fill="#005C84"/>
<path id="Vector_78" d="M47.5303 366.979H39.2559V375.337H47.5303V366.979Z" fill="#005C84"/>
<path id="Vector_79" d="M57.334 366.979H49.0596V375.337H57.334V366.979Z" fill="#005C84"/>
<path id="Vector_80" d="M67.1426 366.979H58.8672V375.337H67.1426V366.979Z" fill="#005C84"/>
<path id="Vector_81" d="M76.9502 366.979H68.6758V375.337H76.9502V366.979Z" fill="#005C84"/>
<path id="Vector_82" d="M135.855 366.979H127.58V375.337H135.855V366.979Z" fill="#005C84"/>
<path id="Vector_83" d="M145.659 366.979H137.385V375.337H145.659V366.979Z" fill="#005C84"/>
<path id="Vector_84" d="M155.468 366.979H147.192V375.337H155.468V366.979Z" fill="#005C84"/>
<path id="Vector_85" d="M165.317 366.979H157.042V375.337H165.317V366.979Z" fill="#005C84"/>
<path id="Vector_86" d="M175.125 366.979H166.851V375.337H175.125V366.979Z" fill="#005C84"/>
<path id="Vector_87" d="M234.01 366.979H225.734V375.337H234.01V366.979Z" fill="#005C84"/>
<path id="Vector_88" d="M243.813 366.979H235.538V375.337H243.813V366.979Z" fill="#005C84"/>
<path id="Vector_89" d="M253.643 366.979H245.367V375.337H253.643V366.979Z" fill="#005C84"/>
<path id="Vector_90" d="M263.45 366.979H255.176V375.337H263.45V366.979Z" fill="#005C84"/>
<path id="Vector_91" d="M273.256 366.979H264.98V375.337H273.256V366.979Z" fill="#005C84"/>
<path id="Vector_92" d="M332.139 366.979H323.863V375.337H332.139V366.979Z" fill="#005C84"/>
<path id="Vector_93" d="M341.968 366.979H333.692V375.337H341.968V366.979Z" fill="#005C84"/>
<path id="Vector_94" d="M351.775 366.979H343.5V375.337H351.775V366.979Z" fill="#005C84"/>
<path id="Vector_95" d="M361.621 366.979H353.347V375.337H361.621V366.979Z" fill="#005C84"/>
<path id="Vector_96" d="M371.43 366.979H363.154V375.337H371.43V366.979Z" fill="#005C84"/>
<path id="Vector_97" d="M37.7002 357.046H29.4258V365.404H37.7002V357.046Z" fill="#005C84"/>
<path id="Vector_98" d="M47.5303 357.046H39.2559V365.404H47.5303V357.046Z" fill="#005C84"/>
<path id="Vector_99" d="M57.334 357.046H49.0596V365.404H57.334V357.046Z" fill="#005C84"/>
<path id="Vector_100" d="M67.1426 357.046H58.8672V365.404H67.1426V357.046Z" fill="#005C84"/>
<path id="Vector_101" d="M76.9502 357.046H68.6758V365.404H76.9502V357.046Z" fill="#005C84"/>
<path id="Vector_102" d="M135.855 357.046H127.58V365.404H135.855V357.046Z" fill="#005C84"/>
<path id="Vector_103" d="M145.659 357.046H137.385V365.404H145.659V357.046Z" fill="#005C84"/>
<path id="Vector_104" d="M155.468 357.046H147.192V365.404H155.468V357.046Z" fill="#005C84"/>
<path id="Vector_105" d="M165.317 357.046H157.042V365.404H165.317V357.046Z" fill="#005C84"/>
<path id="Vector_106" d="M175.125 357.046H166.851V365.404H175.125V357.046Z" fill="#005C84"/>
<path id="Vector_107" d="M234.01 357.046H225.734V365.404H234.01V357.046Z" fill="#005C84"/>
<path id="Vector_108" d="M243.813 357.046H235.538V365.404H243.813V357.046Z" fill="#005C84"/>
<path id="Vector_109" d="M253.643 357.046H245.367V365.404H253.643V357.046Z" fill="#005C84"/>
<path id="Vector_110" d="M263.45 357.046H255.176V365.404H263.45V357.046Z" fill="#005C84"/>
<path id="Vector_111" d="M273.256 357.046H264.98V365.404H273.256V357.046Z" fill="#005C84"/>
<path id="Vector_112" d="M332.139 357.046H323.863V365.404H332.139V357.046Z" fill="#005C84"/>
<path id="Vector_113" d="M341.968 357.046H333.692V365.404H341.968V357.046Z" fill="#005C84"/>
<path id="Vector_114" d="M351.775 357.046H343.5V365.404H351.775V357.046Z" fill="#005C84"/>
<path id="Vector_115" d="M361.621 357.046H353.347V365.404H361.621V357.046Z" fill="#005C84"/>
<path id="Vector_116" d="M371.43 357.046H363.154V365.404H371.43V357.046Z" fill="#005C84"/>
<path id="Vector_117" d="M37.7002 347.138H29.4258V355.496H37.7002V347.138Z" fill="#005C84"/>
<path id="Vector_118" d="M47.5303 347.138H39.2559V355.496H47.5303V347.138Z" fill="#005C84"/>
<path id="Vector_119" d="M57.334 347.138H49.0596V355.496H57.334V347.138Z" fill="#005C84"/>
<path id="Vector_120" d="M67.1426 347.138H58.8672V355.496H67.1426V347.138Z" fill="#005C84"/>
<path id="Vector_121" d="M76.9502 347.138H68.6758V355.496H76.9502V347.138Z" fill="#005C84"/>
<path id="Vector_122" d="M135.855 347.138H127.58V355.496H135.855V347.138Z" fill="#005C84"/>
<path id="Vector_123" d="M145.659 347.138H137.385V355.496H145.659V347.138Z" fill="#005C84"/>
<path id="Vector_124" d="M155.468 347.138H147.192V355.496H155.468V347.138Z" fill="#005C84"/>
<path id="Vector_125" d="M165.317 347.138H157.042V355.496H165.317V347.138Z" fill="#005C84"/>
<path id="Vector_126" d="M175.125 347.138H166.851V355.496H175.125V347.138Z" fill="#005C84"/>
<path id="Vector_127" d="M234.01 347.138H225.734V355.496H234.01V347.138Z" fill="#005C84"/>
<path id="Vector_128" d="M243.813 347.138H235.538V355.496H243.813V347.138Z" fill="#005C84"/>
<path id="Vector_129" d="M253.643 347.138H245.367V355.496H253.643V347.138Z" fill="#005C84"/>
<path id="Vector_130" d="M263.45 347.138H255.176V355.496H263.45V347.138Z" fill="#005C84"/>
<path id="Vector_131" d="M273.256 347.138H264.98V355.496H273.256V347.138Z" fill="#005C84"/>
<path id="Vector_132" d="M332.139 347.138H323.863V355.496H332.139V347.138Z" fill="#005C84"/>
<path id="Vector_133" d="M341.968 347.138H333.692V355.496H341.968V347.138Z" fill="#005C84"/>
<path id="Vector_134" d="M351.775 347.138H343.5V355.496H351.775V347.138Z" fill="#005C84"/>
<path id="Vector_135" d="M361.621 347.138H353.347V355.496H361.621V347.138Z" fill="#005C84"/>
<path id="Vector_136" d="M371.43 347.138H363.154V355.496H371.43V347.138Z" fill="#005C84"/>
<path id="Vector_137" d="M37.7002 337.204H29.4258V345.562H37.7002V337.204Z" fill="#005C84"/>
<path id="Vector_138" d="M47.5303 337.204H39.2559V345.562H47.5303V337.204Z" fill="#005C84"/>
<path id="Vector_139" d="M57.334 337.204H49.0596V345.562H57.334V337.204Z" fill="#005C84"/>
<path id="Vector_140" d="M67.1426 337.204H58.8672V345.562H67.1426V337.204Z" fill="#005C84"/>
<path id="Vector_141" d="M76.9502 337.204H68.6758V345.562H76.9502V337.204Z" fill="#005C84"/>
<path id="Vector_142" d="M135.855 337.204H127.58V345.562H135.855V337.204Z" fill="#005C84"/>
<path id="Vector_143" d="M145.659 337.204H137.385V345.562H145.659V337.204Z" fill="#005C84"/>
<path id="Vector_144" d="M155.468 337.204H147.192V345.562H155.468V337.204Z" fill="#005C84"/>
<path id="Vector_145" d="M165.317 337.204H157.042V345.562H165.317V337.204Z" fill="#005C84"/>
<path id="Vector_146" d="M175.125 337.204H166.851V345.562H175.125V337.204Z" fill="#005C84"/>
<path id="Vector_147" d="M234.01 337.204H225.734V345.562H234.01V337.204Z" fill="#005C84"/>
<path id="Vector_148" d="M243.813 337.204H235.538V345.562H243.813V337.204Z" fill="#005C84"/>
<path id="Vector_149" d="M253.643 337.204H245.367V345.562H253.643V337.204Z" fill="#005C84"/>
<path id="Vector_150" d="M263.45 337.204H255.176V345.562H263.45V337.204Z" fill="#005C84"/>
<path id="Vector_151" d="M273.256 337.204H264.98V345.562H273.256V337.204Z" fill="#005C84"/>
<path id="Vector_152" d="M332.139 337.204H323.863V345.562H332.139V337.204Z" fill="#005C84"/>
<path id="Vector_153" d="M341.968 337.204H333.692V345.562H341.968V337.204Z" fill="#005C84"/>
<path id="Vector_154" d="M351.775 337.204H343.5V345.562H351.775V337.204Z" fill="#005C84"/>
<path id="Vector_155" d="M361.621 337.204H353.347V345.562H361.621V337.204Z" fill="#005C84"/>
<path id="Vector_156" d="M371.43 337.204H363.154V345.562H371.43V337.204Z" fill="#005C84"/>
<path id="Vector_157" d="M37.7002 327.292H29.4258V335.629H37.7002V327.292Z" fill="#005C84"/>
<path id="Vector_158" d="M47.5303 327.292H39.2559V335.629H47.5303V327.292Z" fill="#005C84"/>
<path id="Vector_159" d="M57.334 327.292H49.0596V335.629H57.334V327.292Z" fill="#005C84"/>
<path id="Vector_160" d="M67.1426 327.292H58.8672V335.629H67.1426V327.292Z" fill="#005C84"/>
<path id="Vector_161" d="M76.9502 327.292H68.6758V335.629H76.9502V327.292Z" fill="#005C84"/>
<path id="Vector_162" d="M135.855 327.292H127.58V335.629H135.855V327.292Z" fill="#005C84"/>
<path id="Vector_163" d="M145.659 327.292H137.385V335.629H145.659V327.292Z" fill="#005C84"/>
<path id="Vector_164" d="M155.468 327.292H147.192V335.629H155.468V327.292Z" fill="#005C84"/>
<path id="Vector_165" d="M165.317 327.292H157.042V335.629H165.317V327.292Z" fill="#005C84"/>
<path id="Vector_166" d="M175.125 327.292H166.851V335.629H175.125V327.292Z" fill="#005C84"/>
<path id="Vector_167" d="M234.01 327.292H225.734V335.629H234.01V327.292Z" fill="#005C84"/>
<path id="Vector_168" d="M243.813 327.292H235.538V335.629H243.813V327.292Z" fill="#005C84"/>
<path id="Vector_169" d="M253.643 327.292H245.367V335.629H253.643V327.292Z" fill="#005C84"/>
<path id="Vector_170" d="M263.45 327.292H255.176V335.629H263.45V327.292Z" fill="#005C84"/>
<path id="Vector_171" d="M273.256 327.292H264.98V335.629H273.256V327.292Z" fill="#005C84"/>
<path id="Vector_172" d="M332.139 327.292H323.863V335.629H332.139V327.292Z" fill="#005C84"/>
<path id="Vector_173" d="M341.968 327.292H333.692V335.629H341.968V327.292Z" fill="#005C84"/>
<path id="Vector_174" d="M351.775 327.292H343.5V335.629H351.775V327.292Z" fill="#005C84"/>
<path id="Vector_175" d="M361.621 327.292H353.347V335.629H361.621V327.292Z" fill="#005C84"/>
<path id="Vector_176" d="M371.43 327.292H363.154V335.629H371.43V327.292Z" fill="#005C84"/>
<path id="Vector_177" d="M37.7002 317.404H29.4258V325.742H37.7002V317.404Z" fill="#005C84"/>
<path id="Vector_178" d="M47.5303 317.404H39.2559V325.742H47.5303V317.404Z" fill="#005C84"/>
<path id="Vector_179" d="M57.334 317.404H49.0596V325.742H57.334V317.404Z" fill="#005C84"/>
<path id="Vector_180" d="M67.1426 317.404H58.8672V325.742H67.1426V317.404Z" fill="#005C84"/>
<path id="Vector_181" d="M76.9502 317.404H68.6758V325.742H76.9502V317.404Z" fill="#005C84"/>
<path id="Vector_182" d="M135.855 317.404H127.58V325.742H135.855V317.404Z" fill="#005C84"/>
<path id="Vector_183" d="M145.659 317.404H137.385V325.742H145.659V317.404Z" fill="#005C84"/>
<path id="Vector_184" d="M155.468 317.404H147.192V325.742H155.468V317.404Z" fill="#005C84"/>
<path id="Vector_185" d="M165.317 317.404H157.042V325.742H165.317V317.404Z" fill="#005C84"/>
<path id="Vector_186" d="M175.125 317.404H166.851V325.742H175.125V317.404Z" fill="#005C84"/>
<path id="Vector_187" d="M234.01 317.404H225.734V325.742H234.01V317.404Z" fill="#005C84"/>
<path id="Vector_188" d="M243.813 317.404H235.538V325.742H243.813V317.404Z" fill="#005C84"/>
<path id="Vector_189" d="M253.643 317.404H245.367V325.742H253.643V317.404Z" fill="#005C84"/>
<path id="Vector_190" d="M263.45 317.404H255.176V325.742H263.45V317.404Z" fill="#005C84"/>
<path id="Vector_191" d="M273.256 317.404H264.98V325.742H273.256V317.404Z" fill="#005C84"/>
<path id="Vector_192" d="M332.139 317.404H323.863V325.742H332.139V317.404Z" fill="#005C84"/>
<path id="Vector_193" d="M341.968 317.404H333.692V325.742H341.968V317.404Z" fill="#005C84"/>
<path id="Vector_194" d="M351.775 317.404H343.5V325.742H351.775V317.404Z" fill="#005C84"/>
<path id="Vector_195" d="M361.621 317.404H353.347V325.742H361.621V317.404Z" fill="#005C84"/>
<path id="Vector_196" d="M371.43 317.404H363.154V325.742H371.43V317.404Z" fill="#005C84"/>
<path id="Vector_197" d="M37.7002 307.471H29.4258V315.829H37.7002V307.471Z" fill="#005C84"/>
<path id="Vector_198" d="M47.5303 307.471H39.2559V315.829H47.5303V307.471Z" fill="#005C84"/>
<path id="Vector_199" d="M57.334 307.471H49.0596V315.829H57.334V307.471Z" fill="#005C84"/>
<path id="Vector_200" d="M67.1426 307.471H58.8672V315.829H67.1426V307.471Z" fill="#005C84"/>
<path id="Vector_201" d="M76.9502 307.471H68.6758V315.829H76.9502V307.471Z" fill="#005C84"/>
<path id="Vector_202" d="M135.855 307.471H127.58V315.829H135.855V307.471Z" fill="#005C84"/>
<path id="Vector_203" d="M145.659 307.471H137.385V315.829H145.659V307.471Z" fill="#005C84"/>
<path id="Vector_204" d="M155.468 307.471H147.192V315.829H155.468V307.471Z" fill="#005C84"/>
<path id="Vector_205" d="M165.317 307.471H157.042V315.829H165.317V307.471Z" fill="#005C84"/>
<path id="Vector_206" d="M175.125 307.471H166.851V315.829H175.125V307.471Z" fill="#005C84"/>
<path id="Vector_207" d="M234.01 307.471H225.734V315.829H234.01V307.471Z" fill="#005C84"/>
<path id="Vector_208" d="M243.813 307.471H235.538V315.829H243.813V307.471Z" fill="#005C84"/>
<path id="Vector_209" d="M253.643 307.471H245.367V315.829H253.643V307.471Z" fill="#005C84"/>
<path id="Vector_210" d="M263.45 307.471H255.176V315.829H263.45V307.471Z" fill="#005C84"/>
<path id="Vector_211" d="M273.256 307.471H264.98V315.829H273.256V307.471Z" fill="#005C84"/>
<path id="Vector_212" d="M332.139 307.471H323.863V315.829H332.139V307.471Z" fill="#005C84"/>
<path id="Vector_213" d="M341.968 307.471H333.692V315.829H341.968V307.471Z" fill="#005C84"/>
<path id="Vector_214" d="M351.775 307.471H343.5V315.829H351.775V307.471Z" fill="#005C84"/>
<path id="Vector_215" d="M361.621 307.471H353.347V315.829H361.621V307.471Z" fill="#005C84"/>
<path id="Vector_216" d="M371.43 307.471H363.154V315.829H371.43V307.471Z" fill="#005C84"/>
<path id="Vector_217" d="M37.7002 297.563H29.4258V305.9H37.7002V297.563Z" fill="#005C84"/>
<path id="Vector_218" d="M47.5303 297.563H39.2559V305.9H47.5303V297.563Z" fill="#005C84"/>
<path id="Vector_219" d="M57.334 297.563H49.0596V305.9H57.334V297.563Z" fill="#005C84"/>
<path id="Vector_220" d="M67.1426 297.563H58.8672V305.9H67.1426V297.563Z" fill="#005C84"/>
<path id="Vector_221" d="M76.9502 297.563H68.6758V305.9H76.9502V297.563Z" fill="#005C84"/>
<path id="Vector_222" d="M135.855 297.563H127.58V305.9H135.855V297.563Z" fill="#005C84"/>
<path id="Vector_223" d="M145.659 297.563H137.385V305.9H145.659V297.563Z" fill="#005C84"/>
<path id="Vector_224" d="M155.468 297.563H147.192V305.9H155.468V297.563Z" fill="#005C84"/>
<path id="Vector_225" d="M165.317 297.563H157.042V305.9H165.317V297.563Z" fill="#005C84"/>
<path id="Vector_226" d="M175.125 297.563H166.851V305.9H175.125V297.563Z" fill="#005C84"/>
<path id="Vector_227" d="M234.01 297.563H225.734V305.9H234.01V297.563Z" fill="#005C84"/>
<path id="Vector_228" d="M243.813 297.563H235.538V305.9H243.813V297.563Z" fill="#005C84"/>
<path id="Vector_229" d="M253.643 297.563H245.367V305.9H253.643V297.563Z" fill="#005C84"/>
<path id="Vector_230" d="M263.45 297.563H255.176V305.9H263.45V297.563Z" fill="#005C84"/>
<path id="Vector_231" d="M273.256 297.563H264.98V305.9H273.256V297.563Z" fill="#005C84"/>
<path id="Vector_232" d="M332.139 297.563H323.863V305.9H332.139V297.563Z" fill="#005C84"/>
<path id="Vector_233" d="M341.968 297.563H333.692V305.9H341.968V297.563Z" fill="#005C84"/>
<path id="Vector_234" d="M351.775 297.563H343.5V305.9H351.775V297.563Z" fill="#005C84"/>
<path id="Vector_235" d="M361.621 297.563H353.347V305.9H361.621V297.563Z" fill="#005C84"/>
<path id="Vector_236" d="M371.43 297.563H363.154V305.9H371.43V297.563Z" fill="#005C84"/>
<path id="Vector_237" d="M37.7002 287.629H29.4258V295.987H37.7002V287.629Z" fill="#005C84"/>
<path id="Vector_238" d="M47.5303 287.629H39.2559V295.987H47.5303V287.629Z" fill="#005C84"/>
<path id="Vector_239" d="M57.334 287.629H49.0596V295.987H57.334V287.629Z" fill="#005C84"/>
<path id="Vector_240" d="M67.1426 287.629H58.8672V295.987H67.1426V287.629Z" fill="#005C84"/>
<path id="Vector_241" d="M76.9502 287.629H68.6758V295.987H76.9502V287.629Z" fill="#005C84"/>
<path id="Vector_242" d="M135.855 287.629H127.58V295.987H135.855V287.629Z" fill="#005C84"/>
<path id="Vector_243" d="M145.659 287.629H137.385V295.987H145.659V287.629Z" fill="#005C84"/>
<path id="Vector_244" d="M155.468 287.629H147.192V295.987H155.468V287.629Z" fill="#005C84"/>
<path id="Vector_245" d="M165.317 287.629H157.042V295.987H165.317V287.629Z" fill="#005C84"/>
<path id="Vector_246" d="M175.125 287.629H166.851V295.987H175.125V287.629Z" fill="#005C84"/>
<path id="Vector_247" d="M234.01 287.629H225.734V295.987H234.01V287.629Z" fill="#005C84"/>
<path id="Vector_248" d="M243.813 287.629H235.538V295.987H243.813V287.629Z" fill="#005C84"/>
<path id="Vector_249" d="M253.643 287.629H245.367V295.987H253.643V287.629Z" fill="#005C84"/>
<path id="Vector_250" d="M263.45 287.629H255.176V295.987H263.45V287.629Z" fill="#005C84"/>
<path id="Vector_251" d="M273.256 287.629H264.98V295.987H273.256V287.629Z" fill="#005C84"/>
<path id="Vector_252" d="M332.139 287.629H323.863V295.987H332.139V287.629Z" fill="#005C84"/>
<path id="Vector_253" d="M341.968 287.629H333.692V295.987H341.968V287.629Z" fill="#005C84"/>
<path id="Vector_254" d="M351.775 287.629H343.5V295.987H351.775V287.629Z" fill="#005C84"/>
<path id="Vector_255" d="M361.621 287.629H353.347V295.987H361.621V287.629Z" fill="#005C84"/>
<path id="Vector_256" d="M371.43 287.629H363.154V295.987H371.43V287.629Z" fill="#005C84"/>
<path id="Vector_257" d="M37.7002 277.7H29.4258V286.058H37.7002V277.7Z" fill="#005C84"/>
<path id="Vector_258" d="M47.5303 277.7H39.2559V286.058H47.5303V277.7Z" fill="#005C84"/>
<path id="Vector_259" d="M57.334 277.7H49.0596V286.058H57.334V277.7Z" fill="#005C84"/>
<path id="Vector_260" d="M67.1426 277.7H58.8672V286.058H67.1426V277.7Z" fill="#005C84"/>
<path id="Vector_261" d="M76.9502 277.7H68.6758V286.058H76.9502V277.7Z" fill="#005C84"/>
<path id="Vector_262" d="M135.855 277.7H127.58V286.058H135.855V277.7Z" fill="#005C84"/>
<path id="Vector_263" d="M145.659 277.7H137.385V286.058H145.659V277.7Z" fill="#005C84"/>
<path id="Vector_264" d="M155.468 277.7H147.192V286.058H155.468V277.7Z" fill="#005C84"/>
<path id="Vector_265" d="M165.317 277.7H157.042V286.058H165.317V277.7Z" fill="#005C84"/>
<path id="Vector_266" d="M175.125 277.7H166.851V286.058H175.125V277.7Z" fill="#005C84"/>
<path id="Vector_267" d="M234.01 277.7H225.734V286.058H234.01V277.7Z" fill="#005C84"/>
<path id="Vector_268" d="M243.813 277.7H235.538V286.058H243.813V277.7Z" fill="#005C84"/>
<path id="Vector_269" d="M253.643 277.7H245.367V286.058H253.643V277.7Z" fill="#005C84"/>
<path id="Vector_270" d="M263.45 277.7H255.176V286.058H263.45V277.7Z" fill="#005C84"/>
<path id="Vector_271" d="M273.256 277.7H264.98V286.058H273.256V277.7Z" fill="#005C84"/>
<path id="Vector_272" d="M332.139 277.7H323.863V286.058H332.139V277.7Z" fill="#005C84"/>
<path id="Vector_273" d="M341.968 277.7H333.692V286.058H341.968V277.7Z" fill="#005C84"/>
<path id="Vector_274" d="M351.775 277.7H343.5V286.058H351.775V277.7Z" fill="#005C84"/>
<path id="Vector_275" d="M361.621 277.7H353.347V286.058H361.621V277.7Z" fill="#005C84"/>
<path id="Vector_276" d="M371.43 277.7H363.154V286.058H371.43V277.7Z" fill="#005C84"/>
<path id="Vector_277" d="M37.7002 267.788H29.4258V276.125H37.7002V267.788Z" fill="#005C84"/>
<path id="Vector_278" d="M47.5303 267.788H39.2559V276.125H47.5303V267.788Z" fill="#005C84"/>
<path id="Vector_279" d="M57.334 267.788H49.0596V276.125H57.334V267.788Z" fill="#005C84"/>
<path id="Vector_280" d="M67.1426 267.788H58.8672V276.125H67.1426V267.788Z" fill="#005C84"/>
<path id="Vector_281" d="M76.9502 267.788H68.6758V276.125H76.9502V267.788Z" fill="#005C84"/>
<path id="Vector_282" d="M135.855 267.788H127.58V276.125H135.855V267.788Z" fill="#005C84"/>
<path id="Vector_283" d="M145.659 267.788H137.385V276.125H145.659V267.788Z" fill="#005C84"/>
<path id="Vector_284" d="M155.468 267.788H147.192V276.125H155.468V267.788Z" fill="#005C84"/>
<path id="Vector_285" d="M165.317 267.788H157.042V276.125H165.317V267.788Z" fill="#005C84"/>
<path id="Vector_286" d="M175.125 267.788H166.851V276.125H175.125V267.788Z" fill="#005C84"/>
<path id="Vector_287" d="M234.01 267.788H225.734V276.125H234.01V267.788Z" fill="#005C84"/>
<path id="Vector_288" d="M243.813 267.788H235.538V276.125H243.813V267.788Z" fill="#005C84"/>
<path id="Vector_289" d="M253.643 267.788H245.367V276.125H253.643V267.788Z" fill="#005C84"/>
<path id="Vector_290" d="M263.45 267.788H255.176V276.125H263.45V267.788Z" fill="#005C84"/>
<path id="Vector_291" d="M273.256 267.788H264.98V276.125H273.256V267.788Z" fill="#005C84"/>
<path id="Vector_292" d="M332.139 267.788H323.863V276.125H332.139V267.788Z" fill="#005C84"/>
<path id="Vector_293" d="M341.968 267.788H333.692V276.125H341.968V267.788Z" fill="#005C84"/>
<path id="Vector_294" d="M351.775 267.788H343.5V276.125H351.775V267.788Z" fill="#005C84"/>
<path id="Vector_295" d="M361.621 267.788H353.347V276.125H361.621V267.788Z" fill="#005C84"/>
<path id="Vector_296" d="M371.43 267.788H363.154V276.125H371.43V267.788Z" fill="#005C84"/>
<path id="Vector_297" d="M37.7002 257.859H29.4258V266.217H37.7002V257.859Z" fill="#005C84"/>
<path id="Vector_298" d="M47.5303 257.859H39.2559V266.217H47.5303V257.859Z" fill="#005C84"/>
<path id="Vector_299" d="M57.334 257.859H49.0596V266.217H57.334V257.859Z" fill="#005C84"/>
<path id="Vector_300" d="M67.1426 257.859H58.8672V266.217H67.1426V257.859Z" fill="#005C84"/>
<path id="Vector_301" d="M76.9502 257.859H68.6758V266.217H76.9502V257.859Z" fill="#005C84"/>
<path id="Vector_302" d="M135.855 257.859H127.58V266.217H135.855V257.859Z" fill="#005C84"/>
<path id="Vector_303" d="M145.659 257.859H137.385V266.217H145.659V257.859Z" fill="#005C84"/>
<path id="Vector_304" d="M155.468 257.859H147.192V266.217H155.468V257.859Z" fill="#005C84"/>
<path id="Vector_305" d="M165.317 257.859H157.042V266.217H165.317V257.859Z" fill="#005C84"/>
<path id="Vector_306" d="M175.125 257.859H166.851V266.217H175.125V257.859Z" fill="#005C84"/>
<path id="Vector_307" d="M234.01 257.859H225.734V266.217H234.01V257.859Z" fill="#005C84"/>
<path id="Vector_308" d="M243.813 257.859H235.538V266.217H243.813V257.859Z" fill="#005C84"/>
<path id="Vector_309" d="M253.643 257.859H245.367V266.217H253.643V257.859Z" fill="#005C84"/>
<path id="Vector_310" d="M263.45 257.859H255.176V266.217H263.45V257.859Z" fill="#005C84"/>
<path id="Vector_311" d="M273.256 257.859H264.98V266.217H273.256V257.859Z" fill="#005C84"/>
<path id="Vector_312" d="M332.139 257.859H323.863V266.217H332.139V257.859Z" fill="#005C84"/>
<path id="Vector_313" d="M341.968 257.859H333.692V266.217H341.968V257.859Z" fill="#005C84"/>
<path id="Vector_314" d="M351.775 257.859H343.5V266.217H351.775V257.859Z" fill="#005C84"/>
<path id="Vector_315" d="M361.621 257.859H353.347V266.217H361.621V257.859Z" fill="#005C84"/>
<path id="Vector_316" d="M371.43 257.859H363.154V266.217H371.43V257.859Z" fill="#005C84"/>
<path id="Vector_317" d="M37.7002 247.967H29.4258V256.325H37.7002V247.967Z" fill="#005C84"/>
<path id="Vector_318" d="M47.5303 247.967H39.2559V256.325H47.5303V247.967Z" fill="#005C84"/>
<path id="Vector_319" d="M57.334 247.967H49.0596V256.325H57.334V247.967Z" fill="#005C84"/>
<path id="Vector_320" d="M67.1426 247.967H58.8672V256.325H67.1426V247.967Z" fill="#005C84"/>
<path id="Vector_321" d="M76.9502 247.967H68.6758V256.325H76.9502V247.967Z" fill="#005C84"/>
<path id="Vector_322" d="M135.855 247.967H127.58V256.325H135.855V247.967Z" fill="#005C84"/>
<path id="Vector_323" d="M145.659 247.967H137.385V256.325H145.659V247.967Z" fill="#005C84"/>
<path id="Vector_324" d="M155.468 247.967H147.192V256.325H155.468V247.967Z" fill="#005C84"/>
<path id="Vector_325" d="M165.317 247.967H157.042V256.325H165.317V247.967Z" fill="#005C84"/>
<path id="Vector_326" d="M175.125 247.967H166.851V256.325H175.125V247.967Z" fill="#005C84"/>
<path id="Vector_327" d="M234.01 247.967H225.734V256.325H234.01V247.967Z" fill="#005C84"/>
<path id="Vector_328" d="M243.813 247.967H235.538V256.325H243.813V247.967Z" fill="#005C84"/>
<path id="Vector_329" d="M253.643 247.967H245.367V256.325H253.643V247.967Z" fill="#005C84"/>
<path id="Vector_330" d="M263.45 247.967H255.176V256.325H263.45V247.967Z" fill="#005C84"/>
<path id="Vector_331" d="M273.256 247.967H264.98V256.325H273.256V247.967Z" fill="#005C84"/>
<path id="Vector_332" d="M332.139 247.967H323.863V256.325H332.139V247.967Z" fill="#005C84"/>
<path id="Vector_333" d="M341.968 247.967H333.692V256.325H341.968V247.967Z" fill="#005C84"/>
<path id="Vector_334" d="M351.775 247.967H343.5V256.325H351.775V247.967Z" fill="#005C84"/>
<path id="Vector_335" d="M361.621 247.967H353.347V256.325H361.621V247.967Z" fill="#005C84"/>
<path id="Vector_336" d="M371.43 247.967H363.154V256.325H371.43V247.967Z" fill="#005C84"/>
<path id="Vector_337" d="M37.7002 238.058H29.4258V246.396H37.7002V238.058Z" fill="#005C84"/>
<path id="Vector_338" d="M47.5303 238.058H39.2559V246.396H47.5303V238.058Z" fill="#005C84"/>
<path id="Vector_339" d="M57.334 238.058H49.0596V246.396H57.334V238.058Z" fill="#005C84"/>
<path id="Vector_340" d="M67.1426 238.058H58.8672V246.396H67.1426V238.058Z" fill="#005C84"/>
<path id="Vector_341" d="M76.9502 238.058H68.6758V246.396H76.9502V238.058Z" fill="#005C84"/>
<path id="Vector_342" d="M135.855 238.058H127.58V246.396H135.855V238.058Z" fill="#005C84"/>
<path id="Vector_343" d="M145.659 238.058H137.385V246.396H145.659V238.058Z" fill="#005C84"/>
<path id="Vector_344" d="M155.468 238.058H147.192V246.396H155.468V238.058Z" fill="#005C84"/>
<path id="Vector_345" d="M165.317 238.058H157.042V246.396H165.317V238.058Z" fill="#005C84"/>
<path id="Vector_346" d="M175.125 238.058H166.851V246.396H175.125V238.058Z" fill="#005C84"/>
<path id="Vector_347" d="M234.01 238.058H225.734V246.396H234.01V238.058Z" fill="#005C84"/>
<path id="Vector_348" d="M243.813 238.058H235.538V246.396H243.813V238.058Z" fill="#005C84"/>
<path id="Vector_349" d="M253.643 238.058H245.367V246.396H253.643V238.058Z" fill="#005C84"/>
<path id="Vector_350" d="M263.45 238.058H255.176V246.396H263.45V238.058Z" fill="#005C84"/>
<path id="Vector_351" d="M273.256 238.058H264.98V246.396H273.256V238.058Z" fill="#005C84"/>
<path id="Vector_352" d="M332.139 238.058H323.863V246.396H332.139V238.058Z" fill="#005C84"/>
<path id="Vector_353" d="M341.968 238.058H333.692V246.396H341.968V238.058Z" fill="#005C84"/>
<path id="Vector_354" d="M351.775 238.058H343.5V246.396H351.775V238.058Z" fill="#005C84"/>
<path id="Vector_355" d="M361.621 238.058H353.347V246.396H361.621V238.058Z" fill="#005C84"/>
<path id="Vector_356" d="M371.43 238.058H363.154V246.396H371.43V238.058Z" fill="#005C84"/>
<path id="Vector_357" d="M37.7002 228.125H29.4258V236.483H37.7002V228.125Z" fill="#005C84"/>
<path id="Vector_358" d="M47.5303 228.125H39.2559V236.483H47.5303V228.125Z" fill="#005C84"/>
<path id="Vector_359" d="M57.334 228.125H49.0596V236.483H57.334V228.125Z" fill="#005C84"/>
<path id="Vector_360" d="M67.1426 228.125H58.8672V236.483H67.1426V228.125Z" fill="#005C84"/>
<path id="Vector_361" d="M76.9502 228.125H68.6758V236.483H76.9502V228.125Z" fill="#005C84"/>
<path id="Vector_362" d="M135.855 228.125H127.58V236.483H135.855V228.125Z" fill="#005C84"/>
<path id="Vector_363" d="M145.659 228.125H137.385V236.483H145.659V228.125Z" fill="#005C84"/>
<path id="Vector_364" d="M155.468 228.125H147.192V236.483H155.468V228.125Z" fill="#005C84"/>
<path id="Vector_365" d="M165.317 228.125H157.042V236.483H165.317V228.125Z" fill="#005C84"/>
<path id="Vector_366" d="M175.125 228.125H166.851V236.483H175.125V228.125Z" fill="#005C84"/>
<path id="Vector_367" d="M234.01 228.125H225.734V236.483H234.01V228.125Z" fill="#005C84"/>
<path id="Vector_368" d="M243.813 228.125H235.538V236.483H243.813V228.125Z" fill="#005C84"/>
<path id="Vector_369" d="M253.643 228.125H245.367V236.483H253.643V228.125Z" fill="#005C84"/>
<path id="Vector_370" d="M263.45 228.125H255.176V236.483H263.45V228.125Z" fill="#005C84"/>
<path id="Vector_371" d="M273.256 228.125H264.98V236.483H273.256V228.125Z" fill="#005C84"/>
<path id="Vector_372" d="M332.139 228.125H323.863V236.483H332.139V228.125Z" fill="#005C84"/>
<path id="Vector_373" d="M341.968 228.125H333.692V236.483H341.968V228.125Z" fill="#005C84"/>
<path id="Vector_374" d="M351.775 228.125H343.5V236.483H351.775V228.125Z" fill="#005C84"/>
<path id="Vector_375" d="M361.621 228.125H353.347V236.483H361.621V228.125Z" fill="#005C84"/>
<path id="Vector_376" d="M371.43 228.125H363.154V236.483H371.43V228.125Z" fill="#005C84"/>
<path id="Vector_377" d="M37.7002 218.196H29.4258V226.554H37.7002V218.196Z" fill="#005C84"/>
<path id="Vector_378" d="M47.5303 218.196H39.2559V226.554H47.5303V218.196Z" fill="#005C84"/>
<path id="Vector_379" d="M57.334 218.196H49.0596V226.554H57.334V218.196Z" fill="#005C84"/>
<path id="Vector_380" d="M67.1426 218.196H58.8672V226.554H67.1426V218.196Z" fill="#005C84"/>
<path id="Vector_381" d="M76.9502 218.196H68.6758V226.554H76.9502V218.196Z" fill="#005C84"/>
<path id="Vector_382" d="M135.855 218.196H127.58V226.554H135.855V218.196Z" fill="#005C84"/>
<path id="Vector_383" d="M145.659 218.196H137.385V226.554H145.659V218.196Z" fill="#005C84"/>
<path id="Vector_384" d="M155.468 218.196H147.192V226.554H155.468V218.196Z" fill="#005C84"/>
<path id="Vector_385" d="M165.317 218.196H157.042V226.554H165.317V218.196Z" fill="#005C84"/>
<path id="Vector_386" d="M175.125 218.196H166.851V226.554H175.125V218.196Z" fill="#005C84"/>
<path id="Vector_387" d="M234.01 218.196H225.734V226.554H234.01V218.196Z" fill="#005C84"/>
<path id="Vector_388" d="M243.813 218.196H235.538V226.554H243.813V218.196Z" fill="#005C84"/>
<path id="Vector_389" d="M253.643 218.196H245.367V226.554H253.643V218.196Z" fill="#005C84"/>
<path id="Vector_390" d="M263.45 218.196H255.176V226.554H263.45V218.196Z" fill="#005C84"/>
<path id="Vector_391" d="M273.256 218.196H264.98V226.554H273.256V218.196Z" fill="#005C84"/>
<path id="Vector_392" d="M332.139 218.196H323.863V226.554H332.139V218.196Z" fill="#005C84"/>
<path id="Vector_393" d="M341.968 218.196H333.692V226.554H341.968V218.196Z" fill="#005C84"/>
<path id="Vector_394" d="M351.775 218.196H343.5V226.554H351.775V218.196Z" fill="#005C84"/>
<path id="Vector_395" d="M361.621 218.196H353.347V226.554H361.621V218.196Z" fill="#005C84"/>
<path id="Vector_396" d="M371.43 218.196H363.154V226.554H371.43V218.196Z" fill="#005C84"/>
<path id="Vector_397" d="M37.7002 208.284H29.4258V216.621H37.7002V208.284Z" fill="#005C84"/>
<path id="Vector_398" d="M47.5303 208.284H39.2559V216.621H47.5303V208.284Z" fill="#005C84"/>
<path id="Vector_399" d="M57.334 208.284H49.0596V216.621H57.334V208.284Z" fill="#005C84"/>
<path id="Vector_400" d="M67.1426 208.284H58.8672V216.621H67.1426V208.284Z" fill="#005C84"/>
<path id="Vector_401" d="M76.9502 208.284H68.6758V216.621H76.9502V208.284Z" fill="#005C84"/>
<path id="Vector_402" d="M135.855 208.284H127.58V216.621H135.855V208.284Z" fill="#005C84"/>
<path id="Vector_403" d="M145.659 208.284H137.385V216.621H145.659V208.284Z" fill="#005C84"/>
<path id="Vector_404" d="M155.468 208.284H147.192V216.621H155.468V208.284Z" fill="#005C84"/>
<path id="Vector_405" d="M165.317 208.284H157.042V216.621H165.317V208.284Z" fill="#005C84"/>
<path id="Vector_406" d="M175.125 208.284H166.851V216.621H175.125V208.284Z" fill="#005C84"/>
<path id="Vector_407" d="M234.01 208.284H225.734V216.621H234.01V208.284Z" fill="#005C84"/>
<path id="Vector_408" d="M243.813 208.284H235.538V216.621H243.813V208.284Z" fill="#005C84"/>
<path id="Vector_409" d="M253.643 208.284H245.367V216.621H253.643V208.284Z" fill="#005C84"/>
<path id="Vector_410" d="M263.45 208.284H255.176V216.621H263.45V208.284Z" fill="#005C84"/>
<path id="Vector_411" d="M273.256 208.284H264.98V216.621H273.256V208.284Z" fill="#005C84"/>
<path id="Vector_412" d="M332.139 208.284H323.863V216.621H332.139V208.284Z" fill="#005C84"/>
<path id="Vector_413" d="M341.968 208.284H333.692V216.621H341.968V208.284Z" fill="#005C84"/>
<path id="Vector_414" d="M351.775 208.284H343.5V216.621H351.775V208.284Z" fill="#005C84"/>
<path id="Vector_415" d="M361.621 208.284H353.347V216.621H361.621V208.284Z" fill="#005C84"/>
<path id="Vector_416" d="M371.43 208.284H363.154V216.621H371.43V208.284Z" fill="#005C84"/>
<path id="Vector_417" d="M37.7002 198.354H29.4258V206.712H37.7002V198.354Z" fill="#005C84"/>
<path id="Vector_418" d="M47.5303 198.354H39.2559V206.712H47.5303V198.354Z" fill="#005C84"/>
<path id="Vector_419" d="M57.334 198.354H49.0596V206.712H57.334V198.354Z" fill="#005C84"/>
<path id="Vector_420" d="M67.1426 198.354H58.8672V206.712H67.1426V198.354Z" fill="#005C84"/>
<path id="Vector_421" d="M76.9502 198.354H68.6758V206.712H76.9502V198.354Z" fill="#005C84"/>
<path id="Vector_422" d="M234.01 198.354H225.734V206.712H234.01V198.354Z" fill="#005C84"/>
<path id="Vector_423" d="M243.813 198.354H235.538V206.712H243.813V198.354Z" fill="#005C84"/>
<path id="Vector_424" d="M253.643 198.354H245.367V206.712H253.643V198.354Z" fill="#005C84"/>
<path id="Vector_425" d="M263.45 198.354H255.176V206.712H263.45V198.354Z" fill="#005C84"/>
<path id="Vector_426" d="M273.256 198.354H264.98V206.712H273.256V198.354Z" fill="#005C84"/>
<path id="Vector_427" d="M37.7002 188.421H29.4258V196.779H37.7002V188.421Z" fill="#005C84"/>
<path id="Vector_428" d="M47.5303 188.421H39.2559V196.779H47.5303V188.421Z" fill="#005C84"/>
<path id="Vector_429" d="M57.334 188.421H49.0596V196.779H57.334V188.421Z" fill="#005C84"/>
<path id="Vector_430" d="M67.1426 188.421H58.8672V196.779H67.1426V188.421Z" fill="#005C84"/>
<path id="Vector_431" d="M76.9502 188.421H68.6758V196.779H76.9502V188.421Z" fill="#005C84"/>
<path id="Vector_432" d="M234.01 188.421H225.734V196.779H234.01V188.421Z" fill="#005C84"/>
<path id="Vector_433" d="M243.813 188.421H235.538V196.779H243.813V188.421Z" fill="#005C84"/>
<path id="Vector_434" d="M253.643 188.421H245.367V196.779H253.643V188.421Z" fill="#005C84"/>
<path id="Vector_435" d="M263.45 188.421H255.176V196.779H263.45V188.421Z" fill="#005C84"/>
<path id="Vector_436" d="M273.256 188.421H264.98V196.779H273.256V188.421Z" fill="#005C84"/>
<path id="Vector_437" d="M37.7002 178.513H29.4258V186.871H37.7002V178.513Z" fill="#005C84"/>
<path id="Vector_438" d="M47.5303 178.513H39.2559V186.871H47.5303V178.513Z" fill="#005C84"/>
<path id="Vector_439" d="M57.334 178.513H49.0596V186.871H57.334V178.513Z" fill="#005C84"/>
<path id="Vector_440" d="M67.1426 178.513H58.8672V186.871H67.1426V178.513Z" fill="#005C84"/>
<path id="Vector_441" d="M76.9502 178.513H68.6758V186.871H76.9502V178.513Z" fill="#005C84"/>
<path id="Vector_442" d="M234.01 178.513H225.734V186.871H234.01V178.513Z" fill="#005C84"/>
<path id="Vector_443" d="M243.813 178.513H235.538V186.871H243.813V178.513Z" fill="#005C84"/>
<path id="Vector_444" d="M253.643 178.513H245.367V186.871H253.643V178.513Z" fill="#005C84"/>
<path id="Vector_445" d="M263.45 178.513H255.176V186.871H263.45V178.513Z" fill="#005C84"/>
<path id="Vector_446" d="M273.256 178.513H264.98V186.871H273.256V178.513Z" fill="#005C84"/>
<path id="Vector_447" d="M37.7002 168.621H29.4258V176.979H37.7002V168.621Z" fill="#005C84"/>
<path id="Vector_448" d="M47.5303 168.621H39.2559V176.979H47.5303V168.621Z" fill="#005C84"/>
<path id="Vector_449" d="M57.334 168.621H49.0596V176.979H57.334V168.621Z" fill="#005C84"/>
<path id="Vector_450" d="M67.1426 168.621H58.8672V176.979H67.1426V168.621Z" fill="#005C84"/>
<path id="Vector_451" d="M76.9502 168.621H68.6758V176.979H76.9502V168.621Z" fill="#005C84"/>
<path id="Vector_452" d="M234.01 168.621H225.734V176.979H234.01V168.621Z" fill="#005C84"/>
<path id="Vector_453" d="M243.813 168.621H235.538V176.979H243.813V168.621Z" fill="#005C84"/>
<path id="Vector_454" d="M253.643 168.621H245.367V176.979H253.643V168.621Z" fill="#005C84"/>
<path id="Vector_455" d="M263.45 168.621H255.176V176.979H263.45V168.621Z" fill="#005C84"/>
<path id="Vector_456" d="M273.256 168.621H264.98V176.979H273.256V168.621Z" fill="#005C84"/>
<path id="Vector_457" d="M37.7002 158.692H29.4258V167.05H37.7002V158.692Z" fill="#005C84"/>
<path id="Vector_458" d="M47.5303 158.692H39.2559V167.05H47.5303V158.692Z" fill="#005C84"/>
<path id="Vector_459" d="M57.334 158.692H49.0596V167.05H57.334V158.692Z" fill="#005C84"/>
<path id="Vector_460" d="M67.1426 158.692H58.8672V167.05H67.1426V158.692Z" fill="#005C84"/>
<path id="Vector_461" d="M76.9502 158.692H68.6758V167.05H76.9502V158.692Z" fill="#005C84"/>
<path id="Vector_462" d="M234.01 158.692H225.734V167.05H234.01V158.692Z" fill="#005C84"/>
<path id="Vector_463" d="M243.813 158.692H235.538V167.05H243.813V158.692Z" fill="#005C84"/>
<path id="Vector_464" d="M253.643 158.692H245.367V167.05H253.643V158.692Z" fill="#005C84"/>
<path id="Vector_465" d="M263.45 158.692H255.176V167.05H263.45V158.692Z" fill="#005C84"/>
<path id="Vector_466" d="M273.256 158.692H264.98V167.05H273.256V158.692Z" fill="#005C84"/>
<path id="Vector_467" d="M37.7002 148.779H29.4258V157.116H37.7002V148.779Z" fill="#005C84"/>
<path id="Vector_468" d="M47.5303 148.779H39.2559V157.116H47.5303V148.779Z" fill="#005C84"/>
<path id="Vector_469" d="M57.334 148.779H49.0596V157.116H57.334V148.779Z" fill="#005C84"/>
<path id="Vector_470" d="M67.1426 148.779H58.8672V157.116H67.1426V148.779Z" fill="#005C84"/>
<path id="Vector_471" d="M76.9502 148.779H68.6758V157.116H76.9502V148.779Z" fill="#005C84"/>
<path id="Vector_472" d="M234.01 148.779H225.734V157.116H234.01V148.779Z" fill="#005C84"/>
<path id="Vector_473" d="M243.813 148.779H235.538V157.116H243.813V148.779Z" fill="#005C84"/>
<path id="Vector_474" d="M253.643 148.779H245.367V157.116H253.643V148.779Z" fill="#005C84"/>
<path id="Vector_475" d="M263.45 148.779H255.176V157.116H263.45V148.779Z" fill="#005C84"/>
<path id="Vector_476" d="M273.256 148.779H264.98V157.116H273.256V148.779Z" fill="#005C84"/>
<path id="Vector_477" d="M37.7002 138.85H29.4258V147.208H37.7002V138.85Z" fill="#005C84"/>
<path id="Vector_478" d="M47.5303 138.85H39.2559V147.208H47.5303V138.85Z" fill="#005C84"/>
<path id="Vector_479" d="M57.334 138.85H49.0596V147.208H57.334V138.85Z" fill="#005C84"/>
<path id="Vector_480" d="M67.1426 138.85H58.8672V147.208H67.1426V138.85Z" fill="#005C84"/>
<path id="Vector_481" d="M76.9502 138.85H68.6758V147.208H76.9502V138.85Z" fill="#005C84"/>
<path id="Vector_482" d="M234.01 138.85H225.734V147.208H234.01V138.85Z" fill="#005C84"/>
<path id="Vector_483" d="M243.813 138.85H235.538V147.208H243.813V138.85Z" fill="#005C84"/>
<path id="Vector_484" d="M253.643 138.85H245.367V147.208H253.643V138.85Z" fill="#005C84"/>
<path id="Vector_485" d="M263.45 138.85H255.176V147.208H263.45V138.85Z" fill="#005C84"/>
<path id="Vector_486" d="M273.256 138.85H264.98V147.208H273.256V138.85Z" fill="#005C84"/>
<path id="Vector_487" d="M332.139 138.85H323.863V147.208H332.139V138.85Z" fill="#005C84"/>
<path id="Vector_488" d="M341.968 138.85H333.692V147.208H341.968V138.85Z" fill="#005C84"/>
<path id="Vector_489" d="M351.775 138.85H343.5V147.208H351.775V138.85Z" fill="#005C84"/>
<path id="Vector_490" d="M361.621 138.85H353.347V147.208H361.621V138.85Z" fill="#005C84"/>
<path id="Vector_491" d="M371.43 138.85H363.154V147.208H371.43V138.85Z" fill="#005C84"/>
<path id="Vector_492" d="M381.238 138.85H372.964V147.208H381.238V138.85Z" fill="#005C84"/>
<path id="Vector_493" d="M391.042 138.85H382.768V147.25H391.042V138.85Z" fill="#005C84"/>
<path id="Vector_494" d="M106.413 128.938H98.1387V137.276H106.413V128.938Z" fill="#005C84"/>
<path id="Vector_495" d="M116.218 128.938H107.942V137.276H116.218V128.938Z" fill="#005C84"/>
<path id="Vector_496" d="M126.025 128.938H117.75V137.276H126.025V128.938Z" fill="#005C84"/>
<path id="Vector_497" d="M135.855 128.938H127.58V137.276H135.855V128.938Z" fill="#005C84"/>
<path id="Vector_498" d="M145.659 128.938H137.385V137.276H145.659V128.938Z" fill="#005C84"/>
<path id="Vector_499" d="M155.468 128.938H147.192V137.276H155.468V128.938Z" fill="#005C84"/>
<path id="Vector_500" d="M165.317 128.938H157.042V137.276H165.317V128.938Z" fill="#005C84"/>
<path id="Vector_501" d="M175.125 128.938H166.851V137.276H175.125V128.938Z" fill="#005C84"/>
<path id="Vector_502" d="M184.93 128.938H176.654V137.276H184.93V128.938Z" fill="#005C84"/>
<path id="Vector_503" d="M194.738 128.938H186.464V137.276H194.738V128.938Z" fill="#005C84"/>
<path id="Vector_504" d="M204.542 128.938H196.268V137.276H204.542V128.938Z" fill="#005C84"/>
<path id="Vector_505" d="M322.334 128.938H314.06V137.276H322.334V128.938Z" fill="#005C84"/>
<path id="Vector_506" d="M332.139 128.938H323.863V137.276H332.139V128.938Z" fill="#005C84"/>
<path id="Vector_507" d="M341.968 128.938H333.692V137.276H341.968V128.938Z" fill="#005C84"/>
<path id="Vector_508" d="M351.775 128.938H343.5V137.276H351.775V128.938Z" fill="#005C84"/>
<path id="Vector_509" d="M361.621 128.938H353.347V137.276H361.621V128.938Z" fill="#005C84"/>
<path id="Vector_510" d="M371.43 128.938H363.154V137.276H371.43V128.938Z" fill="#005C84"/>
<path id="Vector_511" d="M381.238 128.938H372.964V137.276H381.238V128.938Z" fill="#005C84"/>
<path id="Vector_512" d="M391.042 128.938H382.768V137.276H391.042V128.938Z" fill="#005C84"/>
<path id="Vector_513" d="M96.6055 119.009H88.3301V127.367H96.6055V119.009Z" fill="#005C84"/>
<path id="Vector_514" d="M106.413 119.009H98.1387V127.367H106.413V119.009Z" fill="#005C84"/>
<path id="Vector_515" d="M116.218 119.009H107.942V127.367H116.218V119.009Z" fill="#005C84"/>
<path id="Vector_516" d="M126.025 119.009H117.75V127.367H126.025V119.009Z" fill="#005C84"/>
<path id="Vector_517" d="M135.855 119.009H127.58V127.367H135.855V119.009Z" fill="#005C84"/>
<path id="Vector_518" d="M145.659 119.009H137.385V127.367H145.659V119.009Z" fill="#005C84"/>
<path id="Vector_519" d="M155.468 119.009H147.192V127.367H155.468V119.009Z" fill="#005C84"/>
<path id="Vector_520" d="M165.317 119.009H157.042V127.367H165.317V119.009Z" fill="#005C84"/>
<path id="Vector_521" d="M175.125 119.009H166.851V127.367H175.125V119.009Z" fill="#005C84"/>
<path id="Vector_522" d="M184.93 119.009H176.654V127.367H184.93V119.009Z" fill="#005C84"/>
<path id="Vector_523" d="M194.738 119.009H186.464V127.367H194.738V119.009Z" fill="#005C84"/>
<path id="Vector_524" d="M204.542 119.009H196.268V127.367H204.542V119.009Z" fill="#005C84"/>
<path id="Vector_525" d="M302.718 119.009H294.442V127.367H302.718V119.009Z" fill="#005C84"/>
<path id="Vector_526" d="M312.525 119.009H304.25V127.367H312.525V119.009Z" fill="#005C84"/>
<path id="Vector_527" d="M322.334 119.009H314.06V127.367H322.334V119.009Z" fill="#005C84"/>
<path id="Vector_528" d="M332.139 119.009H323.863V127.367H332.139V119.009Z" fill="#005C84"/>
<path id="Vector_529" d="M341.968 119.009H333.692V127.367H341.968V119.009Z" fill="#005C84"/>
<path id="Vector_530" d="M351.775 119.009H343.5V127.367H351.775V119.009Z" fill="#005C84"/>
<path id="Vector_531" d="M361.621 119.009H353.347V127.367H361.621V119.009Z" fill="#005C84"/>
<path id="Vector_532" d="M371.43 119.009H363.154V127.367H371.43V119.009Z" fill="#005C84"/>
<path id="Vector_533" d="M381.238 119.009H372.964V127.367H381.238V119.009Z" fill="#005C84"/>
<path id="Vector_534" d="M86.7959 109.075H78.5215V117.433H86.7959V109.075Z" fill="#005C84"/>
<path id="Vector_535" d="M96.6055 109.075H88.3301V117.433H96.6055V109.075Z" fill="#005C84"/>
<path id="Vector_536" d="M106.413 109.075H98.1387V117.433H106.413V109.075Z" fill="#005C84"/>
<path id="Vector_537" d="M116.218 109.075H107.942V117.433H116.218V109.075Z" fill="#005C84"/>
<path id="Vector_538" d="M126.025 109.075H117.75V117.433H126.025V109.075Z" fill="#005C84"/>
<path id="Vector_539" d="M135.855 109.075H127.58V117.433H135.855V109.075Z" fill="#005C84"/>
<path id="Vector_540" d="M145.659 109.075H137.385V117.433H145.659V109.075Z" fill="#005C84"/>
<path id="Vector_541" d="M165.317 109.075H157.042V117.433H165.317V109.075Z" fill="#005C84"/>
<path id="Vector_542" d="M175.125 109.075H166.851V117.433H175.125V109.075Z" fill="#005C84"/>
<path id="Vector_543" d="M184.93 109.075H176.654V117.433H184.93V109.075Z" fill="#005C84"/>
<path id="Vector_544" d="M194.738 109.075H186.464V117.433H194.738V109.075Z" fill="#005C84"/>
<path id="Vector_545" d="M204.542 109.075H196.268V117.433H204.542V109.075Z" fill="#005C84"/>
<path id="Vector_546" d="M214.351 109.075H206.075V117.433H214.351V109.075Z" fill="#005C84"/>
<path id="Vector_547" d="M292.913 109.075H284.639V117.433H292.913V109.075Z" fill="#005C84"/>
<path id="Vector_548" d="M302.718 109.075H294.442V117.433H302.718V109.075Z" fill="#005C84"/>
<path id="Vector_549" d="M312.525 109.075H304.25V117.433H312.525V109.075Z" fill="#005C84"/>
<path id="Vector_550" d="M322.334 109.075H314.06V117.433H322.334V109.075Z" fill="#005C84"/>
<path id="Vector_551" d="M332.139 109.075H323.863V117.433H332.139V109.075Z" fill="#005C84"/>
<path id="Vector_552" d="M341.968 109.075H333.692V117.433H341.968V109.075Z" fill="#005C84"/>
<path id="Vector_553" d="M351.775 109.075H343.5V117.433H351.775V109.075Z" fill="#005C84"/>
<path id="Vector_554" d="M361.621 109.075H353.347V117.433H361.621V109.075Z" fill="#005C84"/>
<path id="Vector_555" d="M8.2334 99.1885H0V107.546H8.2334V99.1885Z" fill="#005C84"/>
<path id="Vector_556" d="M18.0459 99.1885H9.77148V107.546H18.0459V99.1885Z" fill="#005C84"/>
<path id="Vector_557" d="M76.9502 99.1885H68.6758V107.546H76.9502V99.1885Z" fill="#005C84"/>
<path id="Vector_558" d="M86.7959 99.1885H78.5215V107.546H86.7959V99.1885Z" fill="#005C84"/>
<path id="Vector_559" d="M96.6055 99.1885H88.3301V107.546H96.6055V99.1885Z" fill="#005C84"/>
<path id="Vector_560" d="M106.413 99.1885H98.1387V107.546H106.413V99.1885Z" fill="#005C84"/>
<path id="Vector_561" d="M116.218 99.1885H107.942V107.546H116.218V99.1885Z" fill="#005C84"/>
<path id="Vector_562" d="M126.025 99.1885H117.75V107.546H126.025V99.1885Z" fill="#005C84"/>
<path id="Vector_563" d="M135.855 99.1885H127.58V107.546H135.855V99.1885Z" fill="#005C84"/>
<path id="Vector_564" d="M175.125 99.1885H166.851V107.546H175.125V99.1885Z" fill="#005C84"/>
<path id="Vector_565" d="M184.93 99.1885H176.654V107.546H184.93V99.1885Z" fill="#005C84"/>
<path id="Vector_566" d="M194.738 99.1885H186.464V107.546H194.738V99.1885Z" fill="#005C84"/>
<path id="Vector_567" d="M204.542 99.1885H196.268V107.546H204.542V99.1885Z" fill="#005C84"/>
<path id="Vector_568" d="M214.351 99.1885H206.075V107.546H214.351V99.1885Z" fill="#005C84"/>
<path id="Vector_569" d="M224.2 99.1885H215.926V107.546H224.2V99.1885Z" fill="#005C84"/>
<path id="Vector_570" d="M283.063 99.1885H274.788V107.546H283.063V99.1885Z" fill="#005C84"/>
<path id="Vector_571" d="M292.913 99.1885H284.639V107.546H292.913V99.1885Z" fill="#005C84"/>
<path id="Vector_572" d="M302.718 99.1885H294.442V107.546H302.718V99.1885Z" fill="#005C84"/>
<path id="Vector_573" d="M312.525 99.1885H304.25V107.546H312.525V99.1885Z" fill="#005C84"/>
<path id="Vector_574" d="M322.334 99.1885H314.06V107.546H322.334V99.1885Z" fill="#005C84"/>
<path id="Vector_575" d="M332.139 99.1885H323.863V107.546H332.139V99.1885Z" fill="#005C84"/>
<path id="Vector_576" d="M341.968 99.1885H333.692V107.546H341.968V99.1885Z" fill="#005C84"/>
<path id="Vector_577" d="M351.775 99.1885H343.5V107.546H351.775V99.1885Z" fill="#005C84"/>
<path id="Vector_578" d="M8.2334 89.2754H0V97.6172H8.2334V89.2754Z" fill="#005C84"/>
<path id="Vector_579" d="M18.0459 89.2754H9.77148V97.6123H18.0459V89.2754Z" fill="#005C84"/>
<path id="Vector_580" d="M27.8926 89.2754H19.6172V97.6123H27.8926V89.2754Z" fill="#005C84"/>
<path id="Vector_581" d="M67.1426 89.2754H58.8672V97.6123H67.1426V89.2754Z" fill="#005C84"/>
<path id="Vector_582" d="M76.9502 89.2754H68.6758V97.6123H76.9502V89.2754Z" fill="#005C84"/>
<path id="Vector_583" d="M86.7959 89.2754H78.5215V97.6123H86.7959V89.2754Z" fill="#005C84"/>
<path id="Vector_584" d="M96.6055 89.2754H88.3301V97.6123H96.6055V89.2754Z" fill="#005C84"/>
<path id="Vector_585" d="M106.413 89.2754H98.1387V97.6123H106.413V89.2754Z" fill="#005C84"/>
<path id="Vector_586" d="M116.218 89.2754H107.942V97.6123H116.218V89.2754Z" fill="#005C84"/>
<path id="Vector_587" d="M126.025 89.2754H117.75V97.6123H126.025V89.2754Z" fill="#005C84"/>
<path id="Vector_588" d="M175.125 89.2754H166.851V97.6123H175.125V89.2754Z" fill="#005C84"/>
<path id="Vector_589" d="M184.93 89.2754H176.654V97.6123H184.93V89.2754Z" fill="#005C84"/>
<path id="Vector_590" d="M194.738 89.2754H186.464V97.6123H194.738V89.2754Z" fill="#005C84"/>
<path id="Vector_591" d="M204.542 89.2754H196.268V97.6123H204.542V89.2754Z" fill="#005C84"/>
<path id="Vector_592" d="M214.351 89.2754H206.075V97.6123H214.351V89.2754Z" fill="#005C84"/>
<path id="Vector_593" d="M224.2 89.2754H215.926V97.6123H224.2V89.2754Z" fill="#005C84"/>
<path id="Vector_594" d="M234.01 89.2754H225.734V97.6123H234.01V89.2754Z" fill="#005C84"/>
<path id="Vector_595" d="M273.256 89.2754H264.98V97.6123H273.256V89.2754Z" fill="#005C84"/>
<path id="Vector_596" d="M283.063 89.2754H274.788V97.6123H283.063V89.2754Z" fill="#005C84"/>
<path id="Vector_597" d="M292.913 89.2754H284.639V97.6123H292.913V89.2754Z" fill="#005C84"/>
<path id="Vector_598" d="M302.718 89.2754H294.442V97.6123H302.718V89.2754Z" fill="#005C84"/>
<path id="Vector_599" d="M312.525 89.2754H304.25V97.6123H312.525V89.2754Z" fill="#005C84"/>
<path id="Vector_600" d="M322.334 89.2754H314.06V97.6123H322.334V89.2754Z" fill="#005C84"/>
<path id="Vector_601" d="M332.139 89.2754H323.863V97.6123H332.139V89.2754Z" fill="#005C84"/>
<path id="Vector_602" d="M341.968 89.2754H333.692V97.6123H341.968V89.2754Z" fill="#005C84"/>
<path id="Vector_603" d="M8.2334 79.3457H0V87.7041H8.2334V79.3457Z" fill="#005C84"/>
<path id="Vector_604" d="M18.0459 79.3457H9.77148V87.7041H18.0459V79.3457Z" fill="#005C84"/>
<path id="Vector_605" d="M27.8926 79.3457H19.6172V87.7041H27.8926V79.3457Z" fill="#005C84"/>
<path id="Vector_606" d="M37.7002 79.3457H29.4258V87.7041H37.7002V79.3457Z" fill="#005C84"/>
<path id="Vector_607" d="M57.334 79.3457H49.0596V87.7041H57.334V79.3457Z" fill="#005C84"/>
<path id="Vector_608" d="M67.1426 79.3457H58.8672V87.7041H67.1426V79.3457Z" fill="#005C84"/>
<path id="Vector_609" d="M76.9502 79.3457H68.6758V87.7041H76.9502V79.3457Z" fill="#005C84"/>
<path id="Vector_610" d="M86.7959 79.3457H78.5215V87.7041H86.7959V79.3457Z" fill="#005C84"/>
<path id="Vector_611" d="M96.6055 79.3457H88.3301V87.7041H96.6055V79.3457Z" fill="#005C84"/>
<path id="Vector_612" d="M106.413 79.3457H98.1387V87.7041H106.413V79.3457Z" fill="#005C84"/>
<path id="Vector_613" d="M116.218 79.3457H107.942V87.7041H116.218V79.3457Z" fill="#005C84"/>
<path id="Vector_614" d="M184.93 79.3457H176.654V87.7041H184.93V79.3457Z" fill="#005C84"/>
<path id="Vector_615" d="M194.738 79.3457H186.464V87.7041H194.738V79.3457Z" fill="#005C84"/>
<path id="Vector_616" d="M204.542 79.3457H196.268V87.7041H204.542V79.3457Z" fill="#005C84"/>
<path id="Vector_617" d="M214.351 79.3457H206.075V87.7041H214.351V79.3457Z" fill="#005C84"/>
<path id="Vector_618" d="M224.2 79.3457H215.926V87.7041H224.2V79.3457Z" fill="#005C84"/>
<path id="Vector_619" d="M234.01 79.3457H225.734V87.7041H234.01V79.3457Z" fill="#005C84"/>
<path id="Vector_620" d="M243.813 79.3457H235.538V87.7041H243.813V79.3457Z" fill="#005C84"/>
<path id="Vector_621" d="M253.643 79.3457H245.367V87.7041H253.643V79.3457Z" fill="#005C84"/>
<path id="Vector_622" d="M263.45 79.3457H255.176V87.7041H263.45V79.3457Z" fill="#005C84"/>
<path id="Vector_623" d="M273.256 79.3457H264.98V87.7041H273.256V79.3457Z" fill="#005C84"/>
<path id="Vector_624" d="M283.063 79.3457H274.788V87.7041H283.063V79.3457Z" fill="#005C84"/>
<path id="Vector_625" d="M292.913 79.3457H284.639V87.7041H292.913V79.3457Z" fill="#005C84"/>
<path id="Vector_626" d="M302.718 79.3457H294.442V87.7041H302.718V79.3457Z" fill="#005C84"/>
<path id="Vector_627" d="M312.525 79.3457H304.25V87.7041H312.525V79.3457Z" fill="#005C84"/>
<path id="Vector_628" d="M322.334 79.3457H314.06V87.7041H322.334V79.3457Z" fill="#005C84"/>
<path id="Vector_629" d="M8.2334 69.4346H0V77.7715H8.2334V69.4346Z" fill="#005C84"/>
<path id="Vector_630" d="M18.0459 69.4346H9.77148V77.7715H18.0459V69.4346Z" fill="#005C84"/>
<path id="Vector_631" d="M27.8926 69.4346H19.6172V77.7715H27.8926V69.4346Z" fill="#005C84"/>
<path id="Vector_632" d="M37.7002 69.4346H29.4258V77.7715H37.7002V69.4346Z" fill="#005C84"/>
<path id="Vector_633" d="M47.5303 69.4346H39.2559V77.7715H47.5303V69.4346Z" fill="#005C84"/>
<path id="Vector_634" d="M57.334 69.4346H49.0596V77.7715H57.334V69.4346Z" fill="#005C84"/>
<path id="Vector_635" d="M67.1426 69.4346H58.8672V77.7715H67.1426V69.4346Z" fill="#005C84"/>
<path id="Vector_636" d="M76.9502 69.4346H68.6758V77.7715H76.9502V69.4346Z" fill="#005C84"/>
<path id="Vector_637" d="M86.7959 69.4346H78.5215V77.7715H86.7959V69.4346Z" fill="#005C84"/>
<path id="Vector_638" d="M96.6055 69.4346H88.3301V77.7715H96.6055V69.4346Z" fill="#005C84"/>
<path id="Vector_639" d="M106.413 69.4346H98.1387V77.7715H106.413V69.4346Z" fill="#005C84"/>
<path id="Vector_640" d="M194.738 69.4346H186.464V77.7715H194.738V69.4346Z" fill="#005C84"/>
<path id="Vector_641" d="M204.542 69.4346H196.268V77.7715H204.542V69.4346Z" fill="#005C84"/>
<path id="Vector_642" d="M214.351 69.4346H206.075V77.7715H214.351V69.4346Z" fill="#005C84"/>
<path id="Vector_643" d="M224.2 69.4346H215.926V77.7715H224.2V69.4346Z" fill="#005C84"/>
<path id="Vector_644" d="M234.01 69.4346H225.734V77.7715H234.01V69.4346Z" fill="#005C84"/>
<path id="Vector_645" d="M243.813 69.4346H235.538V77.7715H243.813V69.4346Z" fill="#005C84"/>
<path id="Vector_646" d="M253.643 69.4346H245.367V77.7715H253.643V69.4346Z" fill="#005C84"/>
<path id="Vector_647" d="M263.45 69.4346H255.176V77.7715H263.45V69.4346Z" fill="#005C84"/>
<path id="Vector_648" d="M273.256 69.4346H264.98V77.7715H273.256V69.4346Z" fill="#005C84"/>
<path id="Vector_649" d="M283.063 69.4346H274.788V77.7715H283.063V69.4346Z" fill="#005C84"/>
<path id="Vector_650" d="M292.913 69.4346H284.639V77.7715H292.913V69.4346Z" fill="#005C84"/>
<path id="Vector_651" d="M302.718 69.4346H294.442V77.7715H302.718V69.4346Z" fill="#005C84"/>
<path id="Vector_652" d="M312.525 69.4346H304.25V77.7715H312.525V69.4346Z" fill="#005C84"/>
<path id="Vector_653" d="M8.2334 59.5039H0V67.8623H8.2334V59.5039Z" fill="#005C84"/>
<path id="Vector_654" d="M18.0459 59.5039H9.77148V67.8623H18.0459V59.5039Z" fill="#005C84"/>
<path id="Vector_655" d="M27.8926 59.5039H19.6172V67.8623H27.8926V59.5039Z" fill="#005C84"/>
<path id="Vector_656" d="M37.7002 59.5039H29.4258V67.8623H37.7002V59.5039Z" fill="#005C84"/>
<path id="Vector_657" d="M47.5303 59.5039H39.2559V67.8623H47.5303V59.5039Z" fill="#005C84"/>
<path id="Vector_658" d="M57.334 59.5039H49.0596V67.8623H57.334V59.5039Z" fill="#005C84"/>
<path id="Vector_659" d="M67.1426 59.5039H58.8672V67.8623H67.1426V59.5039Z" fill="#005C84"/>
<path id="Vector_660" d="M76.9502 59.5039H68.6758V67.8623H76.9502V59.5039Z" fill="#005C84"/>
<path id="Vector_661" d="M86.7959 59.5039H78.5215V67.8623H86.7959V59.5039Z" fill="#005C84"/>
<path id="Vector_662" d="M96.6055 59.5039H88.3301V67.8623H96.6055V59.5039Z" fill="#005C84"/>
<path id="Vector_663" d="M204.542 59.5039H196.268V67.8623H204.542V59.5039Z" fill="#005C84"/>
<path id="Vector_664" d="M214.351 59.5039H206.075V67.8623H214.351V59.5039Z" fill="#005C84"/>
<path id="Vector_665" d="M224.2 59.5039H215.926V67.8623H224.2V59.5039Z" fill="#005C84"/>
<path id="Vector_666" d="M234.01 59.5039H225.734V67.8623H234.01V59.5039Z" fill="#005C84"/>
<path id="Vector_667" d="M243.813 59.5039H235.538V67.8623H243.813V59.5039Z" fill="#005C84"/>
<path id="Vector_668" d="M253.643 59.5039H245.367V67.8623H253.643V59.5039Z" fill="#005C84"/>
<path id="Vector_669" d="M263.45 59.5039H255.176V67.8623H263.45V59.5039Z" fill="#005C84"/>
<path id="Vector_670" d="M273.256 59.5039H264.98V67.8623H273.256V59.5039Z" fill="#005C84"/>
<path id="Vector_671" d="M283.063 59.5039H274.788V67.8623H283.063V59.5039Z" fill="#005C84"/>
<path id="Vector_672" d="M292.913 59.5039H284.639V67.8623H292.913V59.5039Z" fill="#005C84"/>
<path id="Vector_673" d="M302.718 59.5039H294.442V67.8623H302.718V59.5039Z" fill="#005C84"/>
<path id="Vector_674" d="M8.2334 49.5713H0V57.9707H8.2334V49.5713Z" fill="#005C84"/>
<path id="Vector_675" d="M18.0459 49.5713H9.77148V57.9287H18.0459V49.5713Z" fill="#005C84"/>
<path id="Vector_676" d="M27.8926 49.5713H19.6172V57.9287H27.8926V49.5713Z" fill="#005C84"/>
<path id="Vector_677" d="M37.7002 49.5713H29.4258V57.9287H37.7002V49.5713Z" fill="#005C84"/>
<path id="Vector_678" d="M47.5303 49.5713H39.2559V57.9287H47.5303V49.5713Z" fill="#005C84"/>
<path id="Vector_679" d="M57.334 49.5713H49.0596V57.9287H57.334V49.5713Z" fill="#005C84"/>
<path id="Vector_680" d="M67.1426 49.5713H58.8672V57.9287H67.1426V49.5713Z" fill="#005C84"/>
<path id="Vector_681" d="M76.9502 49.5713H68.6758V57.9287H76.9502V49.5713Z" fill="#005C84"/>
<path id="Vector_682" d="M86.7959 49.5713H78.5215V57.9287H86.7959V49.5713Z" fill="#005C84"/>
<path id="Vector_683" d="M214.351 49.5713H206.075V57.9287H214.351V49.5713Z" fill="#005C84"/>
<path id="Vector_684" d="M224.2 49.5713H215.926V57.9287H224.2V49.5713Z" fill="#005C84"/>
<path id="Vector_685" d="M234.01 49.5713H225.734V57.9287H234.01V49.5713Z" fill="#005C84"/>
<path id="Vector_686" d="M243.813 49.5713H235.538V57.9287H243.813V49.5713Z" fill="#005C84"/>
<path id="Vector_687" d="M253.643 49.5713H245.367V57.9287H253.643V49.5713Z" fill="#005C84"/>
<path id="Vector_688" d="M263.45 49.5713H255.176V57.9287H263.45V49.5713Z" fill="#005C84"/>
<path id="Vector_689" d="M273.256 49.5713H264.98V57.9287H273.256V49.5713Z" fill="#005C84"/>
<path id="Vector_690" d="M283.063 49.5713H274.788V57.9287H283.063V49.5713Z" fill="#005C84"/>
<path id="Vector_691" d="M292.913 49.5713H284.639V57.9287H292.913V49.5713Z" fill="#005C84"/>
<path id="Vector_692" d="M8.2334 39.6592H0V48.001H8.2334V39.6592Z" fill="#005C84"/>
<path id="Vector_693" d="M18.0459 39.6631H9.77148V48H18.0459V39.6631Z" fill="#005C84"/>
<path id="Vector_694" d="M27.8926 39.6631H19.6172V48H27.8926V39.6631Z" fill="#005C84"/>
<path id="Vector_695" d="M37.7002 39.6631H29.4258V48H37.7002V39.6631Z" fill="#005C84"/>
<path id="Vector_696" d="M47.5303 39.6631H39.2559V48H47.5303V39.6631Z" fill="#005C84"/>
<path id="Vector_697" d="M57.334 39.6631H49.0596V48H57.334V39.6631Z" fill="#005C84"/>
<path id="Vector_698" d="M67.1426 39.6631H58.8672V48H67.1426V39.6631Z" fill="#005C84"/>
<path id="Vector_699" d="M76.9502 39.6631H68.6758V48H76.9502V39.6631Z" fill="#005C84"/>
<path id="Vector_700" d="M214.351 39.6631H206.075V48H214.351V39.6631Z" fill="#005C84"/>
<path id="Vector_701" d="M224.2 39.6631H215.926V48H224.2V39.6631Z" fill="#005C84"/>
<path id="Vector_702" d="M234.01 39.6631H225.734V48H234.01V39.6631Z" fill="#005C84"/>
<path id="Vector_703" d="M243.813 39.6631H235.538V48H243.813V39.6631Z" fill="#005C84"/>
<path id="Vector_704" d="M253.643 39.6631H245.367V48H253.643V39.6631Z" fill="#005C84"/>
<path id="Vector_705" d="M263.45 39.6631H255.176V48H263.45V39.6631Z" fill="#005C84"/>
<path id="Vector_706" d="M273.256 39.6631H264.98V48H273.256V39.6631Z" fill="#005C84"/>
<path id="Vector_707" d="M8.2334 29.7715H0V38.1289H8.2334V29.7715Z" fill="#005C84"/>
<path id="Vector_708" d="M18.0459 29.7715H9.77148V38.1289H18.0459V29.7715Z" fill="#005C84"/>
<path id="Vector_709" d="M27.8926 29.7715H19.6172V38.1289H27.8926V29.7715Z" fill="#005C84"/>
<path id="Vector_710" d="M37.7002 29.7715H29.4258V38.1289H37.7002V29.7715Z" fill="#005C84"/>
<path id="Vector_711" d="M47.5303 29.7715H39.2559V38.1289H47.5303V29.7715Z" fill="#005C84"/>
<path id="Vector_712" d="M57.334 29.7715H49.0596V38.1289H57.334V29.7715Z" fill="#005C84"/>
<path id="Vector_713" d="M67.1426 29.7715H58.8672V38.1289H67.1426V29.7715Z" fill="#005C84"/>
<path id="Vector_714" d="M76.9502 29.7715H68.6758V38.1289H76.9502V29.7715Z" fill="#005C84"/>
<path id="Vector_715" d="M86.7959 29.7715H78.5215V38.1289H86.7959V29.7715Z" fill="#005C84"/>
<path id="Vector_716" d="M224.2 29.7715H215.926V38.1289H224.2V29.7715Z" fill="#005C84"/>
<path id="Vector_717" d="M234.01 29.7715H225.734V38.1289H234.01V29.7715Z" fill="#005C84"/>
<path id="Vector_718" d="M243.813 29.7715H235.538V38.1289H243.813V29.7715Z" fill="#005C84"/>
<path id="Vector_719" d="M253.643 29.7715H245.367V38.1289H253.643V29.7715Z" fill="#005C84"/>
<path id="Vector_720" d="M263.45 29.7715H255.176V38.1289H263.45V29.7715Z" fill="#005C84"/>
<path id="Vector_721" d="M8.2334 19.8418H0V28.2422H8.2334V19.8418Z" fill="#005C84"/>
<path id="Vector_722" d="M18.0459 19.8418H9.77148V28.2002H18.0459V19.8418Z" fill="#005C84"/>
<path id="Vector_723" d="M27.8926 19.8418H19.6172V28.2002H27.8926V19.8418Z" fill="#005C84"/>
<path id="Vector_724" d="M37.7002 19.8418H29.4258V28.2002H37.7002V19.8418Z" fill="#005C84"/>
<path id="Vector_725" d="M47.5303 19.8418H39.2559V28.2002H47.5303V19.8418Z" fill="#005C84"/>
<path id="Vector_726" d="M57.334 19.8418H49.0596V28.2002H57.334V19.8418Z" fill="#005C84"/>
<path id="Vector_727" d="M67.1426 19.8418H58.8672V28.2002H67.1426V19.8418Z" fill="#005C84"/>
<path id="Vector_728" d="M76.9502 19.8418H68.6758V28.2002H76.9502V19.8418Z" fill="#005C84"/>
<path id="Vector_729" d="M86.7959 19.8418H78.5215V28.2002H86.7959V19.8418Z" fill="#005C84"/>
<path id="Vector_730" d="M96.6055 19.8418H88.3301V28.2002H96.6055V19.8418Z" fill="#005C84"/>
<path id="Vector_731" d="M234.01 19.8418H225.734V28.2002H234.01V19.8418Z" fill="#005C84"/>
<path id="Vector_732" d="M243.813 19.8418H235.538V28.2002H243.813V19.8418Z" fill="#005C84"/>
<path id="Vector_733" d="M253.643 19.8418H245.367V28.2002H253.643V19.8418Z" fill="#005C84"/>
<path id="Vector_734" d="M8.2334 9.92871H0V18.2676H8.2334V9.92871Z" fill="#005C84"/>
<path id="Vector_735" d="M18.0459 9.92871H9.77148V18.2676H18.0459V9.92871Z" fill="#005C84"/>
<path id="Vector_736" d="M27.8926 9.92871H19.6172V18.2676H27.8926V9.92871Z" fill="#005C84"/>
<path id="Vector_737" d="M37.7002 9.92871H29.4258V18.2676H37.7002V9.92871Z" fill="#005C84"/>
<path id="Vector_738" d="M47.5303 9.92871H39.2559V18.2676H47.5303V9.92871Z" fill="#005C84"/>
<path id="Vector_739" d="M57.334 9.92871H49.0596V18.2676H57.334V9.92871Z" fill="#005C84"/>
<path id="Vector_740" d="M67.1426 9.92871H58.8672V18.2676H67.1426V9.92871Z" fill="#005C84"/>
<path id="Vector_741" d="M76.9502 9.92871H68.6758V18.2676H76.9502V9.92871Z" fill="#005C84"/>
<path id="Vector_742" d="M86.7959 9.92871H78.5215V18.2676H86.7959V9.92871Z" fill="#005C84"/>
<path id="Vector_743" d="M96.6055 9.92871H88.3301V18.2676H96.6055V9.92871Z" fill="#005C84"/>
<path id="Vector_744" d="M106.413 9.92871H98.1387V18.2676H106.413V9.92871Z" fill="#005C84"/>
<path id="Vector_745" d="M8.2334 0H0V8.3584H8.2334V0Z" fill="#005C84"/>
<path id="Vector_746" d="M18.0459 0H9.77148V8.3584H18.0459V0Z" fill="#005C84"/>
<path id="Vector_747" d="M27.8926 0H19.6172V8.3584H27.8926V0Z" fill="#005C84"/>
<path id="Vector_748" d="M37.7002 0H29.4258V8.3584H37.7002V0Z" fill="#005C84"/>
<path id="Vector_749" d="M47.5303 0H39.2559V8.3584H47.5303V0Z" fill="#005C84"/>
<path id="Vector_750" d="M57.334 0H49.0596V8.3584H57.334V0Z" fill="#005C84"/>
<path id="Vector_751" d="M67.1426 0H58.8672V8.3584H67.1426V0Z" fill="#005C84"/>
<path id="Vector_752" d="M76.9463 0H68.6709V8.3584H76.9463V0Z" fill="#005C84"/>
<path id="Vector_753" d="M86.8008 0H78.5254V8.3584H86.8008V0Z" fill="#005C84"/>
<path id="Vector_754" d="M96.6055 0H88.3301V8.3584H96.6055V0Z" fill="#005C84"/>
<path id="Vector_755" d="M106.413 0H98.1387V8.3584H106.413V0Z" fill="#005C84"/>
</g>
</svg>
