<svg preserveAspectRatio="none" overflow="visible" style="display: block;" width="92.2111" height="43" viewBox="0 0 92.2111 43" fill="none" xmlns="http://www.w3.org/2000/svg">
<g id="$$$ pixels (decorative)">
<g id="Pixels" opacity="0.7">
<path d="M81.5627 38.2535H79.6252V40.2673H81.5627V38.2535Z" fill="#38A8AB"/>
<path d="M78.9046 38.2535H76.9671V40.2673H78.9046V38.2535Z" fill="#38A8AB"/>
<path d="M84.2288 35.5153H82.2885V37.5295H84.2288V35.5153Z" fill="#38A8AB"/>
<path d="M81.5627 35.5153H79.6252V37.5295H81.5627V35.5153Z" fill="#38A8AB"/>
<path d="M78.9046 35.5153H76.9671V37.5295H78.9046V35.5153Z" fill="#38A8AB"/>
<path d="M81.5627 38.2535H79.6252V40.2673H81.5627V38.2535Z" fill="#38A8AB"/>
<path d="M78.9046 38.2535H76.9671V40.2673H78.9046V38.2535Z" fill="#38A8AB"/>
<path d="M81.5627 40.9858H79.6252V43H81.5627V40.9858Z" fill="#38A8AB"/>
<path d="M78.9046 40.9858H76.9671V43H78.9046V40.9858Z" fill="#38A8AB"/>
<path d="M76.2465 35.5153H74.3006V37.5295H76.2465V35.5153Z" fill="#38A8AB"/>
<path d="M89.5522 32.783H87.6063V34.7971H89.5522V32.783Z" fill="#38A8AB"/>
<path d="M86.8933 32.783H84.9474V34.7971H86.8933V32.783Z" fill="#38A8AB"/>
<path d="M84.2288 32.783H82.2885V34.7971H84.2288V32.783Z" fill="#38A8AB"/>
<path d="M81.5627 32.783H79.6252V34.7971H81.5627V32.783Z" fill="#38A8AB"/>
<path d="M78.9046 32.783H76.9671V34.7971H78.9046V32.783Z" fill="#38A8AB"/>
<path d="M76.2465 32.783H74.3006V34.7971H76.2465V32.783Z" fill="#38A8AB"/>
<path d="M73.5822 32.783H71.6359V34.7971H73.5822V32.783Z" fill="#38A8AB"/>
<path d="M70.9233 32.783H68.977V34.7971H70.9233V32.783Z" fill="#38A8AB"/>
<path d="M89.5522 30.0562H87.6063V32.0644H89.5522V30.0562Z" fill="#38A8AB"/>
<path d="M86.8933 30.0562H84.9474V32.0644H86.8933V30.0562Z" fill="#38A8AB"/>
<path d="M81.5627 30.0562H79.6252V32.0644H81.5627V30.0562Z" fill="#38A8AB"/>
<path d="M78.9046 30.0562H76.9671V32.0644H78.9046V30.0562Z" fill="#38A8AB"/>
<path d="M73.5822 30.0562H71.6359V32.0644H73.5822V30.0562Z" fill="#38A8AB"/>
<path d="M70.9233 30.0562H68.977V32.0644H70.9233V30.0562Z" fill="#38A8AB"/>
<path d="M68.2644 30.0562H66.3185V32.0644H68.2644V30.0562Z" fill="#38A8AB"/>
<path d="M68.2644 27.324H66.3185V29.3381H68.2644V27.324Z" fill="#38A8AB"/>
<path d="M92.2111 27.324H90.2648V29.3381H92.2111V27.324Z" fill="#38A8AB"/>
<path d="M92.2111 30.0562H90.2648V32.07H92.2111V30.0562Z" fill="#38A8AB"/>
<path d="M89.5522 27.324H87.6063V29.3381H89.5522V27.324Z" fill="#38A8AB"/>
<path d="M81.5627 27.324H79.6252V29.3377H81.5627V27.324Z" fill="#38A8AB"/>
<path d="M78.9046 27.324H76.9671V29.3377H78.9046V27.324Z" fill="#38A8AB"/>
<path d="M70.9233 27.324H68.977V29.3381H70.9233V27.324Z" fill="#38A8AB"/>
<path d="M92.2111 24.5916H90.2648V26.6054H92.2111V24.5916Z" fill="#38A8AB"/>
<path d="M89.5522 24.5916H87.6063V26.6054H89.5522V24.5916Z" fill="#38A8AB"/>
<path d="M86.8933 24.5916H84.9474V26.6054H86.8933V24.5916Z" fill="#38A8AB"/>
<path d="M81.5627 24.5916H79.6252V26.6054H81.5627V24.5916Z" fill="#38A8AB"/>
<path d="M78.9046 24.5916H76.9671V26.6054H78.9046V24.5916Z" fill="#38A8AB"/>
<path d="M89.5522 21.8593H87.6063V23.8675H89.5522V21.8593Z" fill="#38A8AB"/>
<path d="M86.8933 21.8593H84.9474V23.8675H86.8933V21.8593Z" fill="#38A8AB"/>
<path d="M84.2288 21.8593H82.2885V23.8675H84.2288V21.8593Z" fill="#38A8AB"/>
<path d="M81.5627 21.8593H79.6252V23.8674H81.5627V21.8593Z" fill="#38A8AB"/>
<path d="M78.9046 21.8593H76.9671V23.8674H78.9046V21.8593Z" fill="#38A8AB"/>
<path d="M76.2465 21.8593H74.3006V23.8674H76.2465V21.8593Z" fill="#38A8AB"/>
<path d="M86.8933 19.1267H84.9474V21.1404H86.8933V19.1267Z" fill="#38A8AB"/>
<path d="M84.2288 19.1267H82.2885V21.1404H84.2288V19.1267Z" fill="#38A8AB"/>
<path d="M81.5643 19.1267H79.624V21.1404H81.5643V19.1267Z" fill="#38A8AB"/>
<path d="M78.9058 19.1267H76.9649V21.1404H78.9058V19.1267Z" fill="#38A8AB"/>
<path d="M76.2469 19.1267H74.3006V21.1404H76.2469V19.1267Z" fill="#38A8AB"/>
<path d="M73.5822 19.1267H71.6359V21.1404H73.5822V19.1267Z" fill="#38A8AB"/>
<path d="M70.9233 19.1267H68.977V21.1404H70.9233V19.1267Z" fill="#38A8AB"/>
<path d="M81.5643 16.3942H79.624V18.408H81.5643V16.3942Z" fill="#38A8AB"/>
<path d="M78.9058 16.3942H76.9649V18.408H78.9058V16.3942Z" fill="#38A8AB"/>
<path d="M73.5822 16.3942H71.6359V18.408H73.5822V16.3942Z" fill="#38A8AB"/>
<path d="M70.9233 16.3942H68.977V18.408H70.9233V16.3942Z" fill="#38A8AB"/>
<path d="M81.5627 13.662H79.6252V15.6757H81.5627V13.662Z" fill="#38A8AB"/>
<path d="M78.9046 13.662H76.9671V15.6757H78.9046V13.662Z" fill="#38A8AB"/>
<path d="M70.9233 13.662H68.977V15.6762H70.9233V13.662Z" fill="#38A8AB"/>
<path d="M89.5522 10.9296H87.6063V12.9379H89.5522V10.9296Z" fill="#38A8AB"/>
<path d="M86.8933 10.9296H84.9474V12.9379H86.8933V10.9296Z" fill="#38A8AB"/>
<path d="M81.5627 10.9296H79.6252V12.9379H81.5627V10.9296Z" fill="#38A8AB"/>
<path d="M78.9046 10.9296H76.9671V12.9379H78.9046V10.9296Z" fill="#38A8AB"/>
<path d="M73.5822 16.3942H71.6359V18.408H73.5822V16.3942Z" fill="#38A8AB"/>
<path d="M73.5822 10.9296H71.6359V12.9379H73.5822V10.9296Z" fill="#38A8AB"/>
<path d="M70.9233 16.3942H68.977V18.408H70.9233V16.3942Z" fill="#38A8AB"/>
<path d="M70.9233 13.662H68.977V15.6762H70.9233V13.662Z" fill="#38A8AB"/>
<path d="M70.9233 10.9296H68.977V12.9379H70.9233V10.9296Z" fill="#38A8AB"/>
<path d="M68.2644 16.3942H66.3185V18.408H68.2644V16.3942Z" fill="#38A8AB"/>
<path d="M68.2644 13.662H66.3185V15.6762H68.2644V13.662Z" fill="#38A8AB"/>
<path d="M68.2644 10.9296H66.3185V12.9379H68.2644V10.9296Z" fill="#38A8AB"/>
<path d="M73.5822 10.9296H71.6359V12.9379H73.5822V10.9296Z" fill="#38A8AB"/>
<path d="M70.9233 10.9296H68.977V12.9379H70.9233V10.9296Z" fill="#38A8AB"/>
<path d="M89.5522 8.19731H87.6063V10.2111H89.5522V8.19731Z" fill="#38A8AB"/>
<path d="M86.8933 8.19731H84.9474V10.2111H86.8933V8.19731Z" fill="#38A8AB"/>
<path d="M84.2288 8.19731H82.2885V10.2111H84.2288V8.19731Z" fill="#38A8AB"/>
<path d="M81.5627 8.19731H79.6252V10.2111H81.5627V8.19731Z" fill="#38A8AB"/>
<path d="M78.9046 8.19731H76.9671V10.2111H78.9046V8.19731Z" fill="#38A8AB"/>
<path d="M76.2465 8.19731H74.3006V10.2111H76.2465V8.19731Z" fill="#38A8AB"/>
<path d="M73.5822 8.19731H71.6359V10.2111H73.5822V8.19731Z" fill="#38A8AB"/>
<path d="M70.9233 8.19731H68.977V10.2111H70.9233V8.19731Z" fill="#38A8AB"/>
<path d="M84.2288 5.46457H82.2885V7.47833H84.2288V5.46457Z" fill="#38A8AB"/>
<path d="M81.5643 5.46457H79.624V7.47833H81.5643V5.46457Z" fill="#38A8AB"/>
<path d="M78.9058 5.46457H76.9649V7.47833H78.9058V5.46457Z" fill="#38A8AB"/>
<path d="M81.5627 2.73224H79.6252V4.74053H81.5627V2.73224Z" fill="#38A8AB"/>
<path d="M78.9046 2.73224H76.9671V4.74053H78.9046V2.73224Z" fill="#38A8AB"/>
<path d="M81.5627 0H79.6252V2.01376H81.5627V0Z" fill="#38A8AB"/>
<path d="M78.9046 0H76.9671V2.01376H78.9046V0Z" fill="#38A8AB"/>
<path d="M76.2469 5.46457H74.3006V7.47833H76.2469V5.46457Z" fill="#38A8AB"/>
<path d="M81.5627 2.73224H79.6252V4.74053H81.5627V2.73224Z" fill="#38A8AB"/>
<path d="M78.9046 2.73224H76.9671V4.74053H78.9046V2.73224Z" fill="#38A8AB"/>
<path d="M48.4062 38.2535H46.4687V40.2673H48.4062V38.2535Z" fill="#38A8AB"/>
<path d="M45.7481 38.2535H43.8106V40.2673H45.7481V38.2535Z" fill="#38A8AB"/>
<path d="M51.0727 35.5153H49.1268V37.5295H51.0727V35.5153Z" fill="#38A8AB"/>
<path d="M48.4062 35.5153H46.4687V37.5295H48.4062V35.5153Z" fill="#38A8AB"/>
<path d="M45.7481 35.5153H43.8106V37.5295H45.7481V35.5153Z" fill="#38A8AB"/>
<path d="M48.4062 38.2535H46.4687V40.2673H48.4062V38.2535Z" fill="#38A8AB"/>
<path d="M45.7481 38.2535H43.8106V40.2673H45.7481V38.2535Z" fill="#38A8AB"/>
<path d="M48.4062 40.9858H46.4687V43H48.4062V40.9858Z" fill="#38A8AB"/>
<path d="M45.7481 40.9858H43.8106V43H45.7481V40.9858Z" fill="#38A8AB"/>
<path d="M43.0847 35.5153H41.1384V37.5295H43.0847V35.5153Z" fill="#38A8AB"/>
<path d="M56.3961 32.783H54.4498V34.7971H56.3961V32.783Z" fill="#38A8AB"/>
<path d="M53.7372 32.783H51.7909V34.7971H53.7372V32.783Z" fill="#38A8AB"/>
<path d="M51.0727 32.783H49.1268V34.7971H51.0727V32.783Z" fill="#38A8AB"/>
<path d="M48.4062 32.783H46.4687V34.7971H48.4062V32.783Z" fill="#38A8AB"/>
<path d="M45.7481 32.783H43.8106V34.7971H45.7481V32.783Z" fill="#38A8AB"/>
<path d="M43.0847 32.783H41.1384V34.7971H43.0847V32.783Z" fill="#38A8AB"/>
<path d="M40.4257 32.783H38.4795V34.7971H40.4257V32.783Z" fill="#38A8AB"/>
<path d="M37.7668 32.783H35.8209V34.7971H37.7668V32.783Z" fill="#38A8AB"/>
<path d="M56.3961 30.0562H54.4498V32.0644H56.3961V30.0562Z" fill="#38A8AB"/>
<path d="M53.7372 30.0562H51.7909V32.0644H53.7372V30.0562Z" fill="#38A8AB"/>
<path d="M48.4062 30.0562H46.4687V32.0644H48.4062V30.0562Z" fill="#38A8AB"/>
<path d="M45.7481 30.0562H43.8106V32.0644H45.7481V30.0562Z" fill="#38A8AB"/>
<path d="M40.4257 30.0562H38.4795V32.0644H40.4257V30.0562Z" fill="#38A8AB"/>
<path d="M37.7668 30.0562H35.8209V32.0644H37.7668V30.0562Z" fill="#38A8AB"/>
<path d="M35.1079 30.0562H33.162V32.0644H35.1079V30.0562Z" fill="#38A8AB"/>
<path d="M35.1079 27.324H33.162V29.3381H35.1079V27.324Z" fill="#38A8AB"/>
<path d="M59.0546 27.324H57.1087V29.3381H59.0546V27.324Z" fill="#38A8AB"/>
<path d="M59.0546 30.0562H57.1087V32.0644H59.0546V30.0562Z" fill="#38A8AB"/>
<path d="M56.3961 27.324H54.4498V29.3381H56.3961V27.324Z" fill="#38A8AB"/>
<path d="M48.4062 27.324H46.4687V29.3377H48.4062V27.324Z" fill="#38A8AB"/>
<path d="M45.7481 27.324H43.8106V29.3377H45.7481V27.324Z" fill="#38A8AB"/>
<path d="M37.7668 27.324H35.8209V29.3381H37.7668V27.324Z" fill="#38A8AB"/>
<path d="M59.0546 24.5916H57.1087V26.6054H59.0546V24.5916Z" fill="#38A8AB"/>
<path d="M56.3961 24.5916H54.4498V26.6054H56.3961V24.5916Z" fill="#38A8AB"/>
<path d="M53.7372 24.5916H51.7909V26.6054H53.7372V24.5916Z" fill="#38A8AB"/>
<path d="M48.4062 24.5916H46.4687V26.6054H48.4062V24.5916Z" fill="#38A8AB"/>
<path d="M45.7481 24.5916H43.8106V26.6054H45.7481V24.5916Z" fill="#38A8AB"/>
<path d="M56.3961 21.8593H54.4498V23.8675H56.3961V21.8593Z" fill="#38A8AB"/>
<path d="M53.7372 21.8593H51.7909V23.8675H53.7372V21.8593Z" fill="#38A8AB"/>
<path d="M51.0727 21.8593H49.1268V23.8674H51.0727V21.8593Z" fill="#38A8AB"/>
<path d="M48.4062 21.8593H46.4687V23.8674H48.4062V21.8593Z" fill="#38A8AB"/>
<path d="M45.7481 21.8593H43.8106V23.8674H45.7481V21.8593Z" fill="#38A8AB"/>
<path d="M43.0847 21.8593H41.1384V23.8675H43.0847V21.8593Z" fill="#38A8AB"/>
<path d="M53.7372 19.1267H51.7909V21.1404H53.7372V19.1267Z" fill="#38A8AB"/>
<path d="M51.0727 19.1267H49.1264V21.1404H51.0727V19.1267Z" fill="#38A8AB"/>
<path d="M48.4082 19.1267H46.4675V21.1404H48.4082V19.1267Z" fill="#38A8AB"/>
<path d="M45.7493 19.1267H43.8088V21.1404H45.7493V19.1267Z" fill="#38A8AB"/>
<path d="M43.0847 19.1267H41.1384V21.1404H43.0847V19.1267Z" fill="#38A8AB"/>
<path d="M40.4257 19.1267H38.4795V21.1404H40.4257V19.1267Z" fill="#38A8AB"/>
<path d="M37.7668 19.1267H35.8209V21.1404H37.7668V19.1267Z" fill="#38A8AB"/>
<path d="M48.4082 16.3942H46.4675V18.408H48.4082V16.3942Z" fill="#38A8AB"/>
<path d="M45.7493 16.3942H43.8088V18.408H45.7493V16.3942Z" fill="#38A8AB"/>
<path d="M40.4257 16.3942H38.4795V18.408H40.4257V16.3942Z" fill="#38A8AB"/>
<path d="M37.7668 16.3942H35.8209V18.408H37.7668V16.3942Z" fill="#38A8AB"/>
<path d="M48.4062 13.662H46.4687V15.6757H48.4062V13.662Z" fill="#38A8AB"/>
<path d="M45.7481 13.662H43.8106V15.6757H45.7481V13.662Z" fill="#38A8AB"/>
<path d="M37.7668 13.662H35.8209V15.6762H37.7668V13.662Z" fill="#38A8AB"/>
<path d="M56.3961 10.9296H54.4498V12.9379H56.3961V10.9296Z" fill="#38A8AB"/>
<path d="M53.7372 10.9296H51.7909V12.9379H53.7372V10.9296Z" fill="#38A8AB"/>
<path d="M48.4062 10.9296H46.4687V12.9379H48.4062V10.9296Z" fill="#38A8AB"/>
<path d="M45.7481 10.9296H43.8106V12.9379H45.7481V10.9296Z" fill="#38A8AB"/>
<path d="M40.4257 16.3942H38.4795V18.408H40.4257V16.3942Z" fill="#38A8AB"/>
<path d="M40.4257 10.9296H38.4795V12.9379H40.4257V10.9296Z" fill="#38A8AB"/>
<path d="M37.7668 16.3942H35.8209V18.408H37.7668V16.3942Z" fill="#38A8AB"/>
<path d="M37.7668 13.662H35.8209V15.6762H37.7668V13.662Z" fill="#38A8AB"/>
<path d="M37.7668 10.9296H35.8209V12.9379H37.7668V10.9296Z" fill="#38A8AB"/>
<path d="M35.1079 16.3942H33.162V18.408H35.1079V16.3942Z" fill="#38A8AB"/>
<path d="M35.1079 13.662H33.162V15.6762H35.1079V13.662Z" fill="#38A8AB"/>
<path d="M35.1079 10.9296H33.162V12.9379H35.1079V10.9296Z" fill="#38A8AB"/>
<path d="M40.4257 10.9296H38.4795V12.9379H40.4257V10.9296Z" fill="#38A8AB"/>
<path d="M37.7668 10.9296H35.8209V12.9379H37.7668V10.9296Z" fill="#38A8AB"/>
<path d="M56.3961 8.19731H54.4498V10.2111H56.3961V8.19731Z" fill="#38A8AB"/>
<path d="M53.7372 8.19731H51.7909V10.2111H53.7372V8.19731Z" fill="#38A8AB"/>
<path d="M51.0727 8.19731H49.1268V10.2111H51.0727V8.19731Z" fill="#38A8AB"/>
<path d="M48.4062 8.19731H46.4687V10.2111H48.4062V8.19731Z" fill="#38A8AB"/>
<path d="M45.7481 8.19731H43.8106V10.2111H45.7481V8.19731Z" fill="#38A8AB"/>
<path d="M43.0847 8.19731H41.1384V10.2111H43.0847V8.19731Z" fill="#38A8AB"/>
<path d="M40.4257 8.19731H38.4795V10.2111H40.4257V8.19731Z" fill="#38A8AB"/>
<path d="M37.7668 8.19731H35.8209V10.2111H37.7668V8.19731Z" fill="#38A8AB"/>
<path d="M51.0727 5.46457H49.1264V7.47833H51.0727V5.46457Z" fill="#38A8AB"/>
<path d="M48.4082 5.46457H46.4675V7.47833H48.4082V5.46457Z" fill="#38A8AB"/>
<path d="M45.7493 5.46457H43.8088V7.47833H45.7493V5.46457Z" fill="#38A8AB"/>
<path d="M48.4062 2.73224H46.4687V4.74053H48.4062V2.73224Z" fill="#38A8AB"/>
<path d="M45.7481 2.73224H43.8106V4.74053H45.7481V2.73224Z" fill="#38A8AB"/>
<path d="M48.4062 0H46.4687V2.01376H48.4062V0Z" fill="#38A8AB"/>
<path d="M45.7481 0H43.8106V2.01376H45.7481V0Z" fill="#38A8AB"/>
<path d="M43.0847 5.46457H41.1384V7.47833H43.0847V5.46457Z" fill="#38A8AB"/>
<path d="M48.4062 2.73224H46.4687V4.74053H48.4062V2.73224Z" fill="#38A8AB"/>
<path d="M45.7481 2.73224H43.8106V4.74053H45.7481V2.73224Z" fill="#38A8AB"/>
<path d="M15.2498 38.2535H13.3122V40.2673H15.2498V38.2535Z" fill="#38A8AB"/>
<path d="M12.5869 38.2535H10.6466V40.2673H12.5869V38.2535Z" fill="#38A8AB"/>
<path d="M17.9103 35.5153H15.9699V37.5295H17.9103V35.5153Z" fill="#38A8AB"/>
<path d="M15.2498 35.5153H13.3122V37.5295H15.2498V35.5153Z" fill="#38A8AB"/>
<path d="M12.5869 35.5153H10.6466V37.5295H12.5869V35.5153Z" fill="#38A8AB"/>
<path d="M15.2498 38.2535H13.3122V40.2673H15.2498V38.2535Z" fill="#38A8AB"/>
<path d="M12.5869 38.2535H10.6466V40.2673H12.5869V38.2535Z" fill="#38A8AB"/>
<path d="M15.2498 40.9858H13.3122V43H15.2498V40.9858Z" fill="#38A8AB"/>
<path d="M12.5869 40.9858H10.6466V43H12.5869V40.9858Z" fill="#38A8AB"/>
<path d="M9.92779 35.5153H7.98189V37.5295H9.92779V35.5153Z" fill="#38A8AB"/>
<path d="M23.2337 32.783H21.2874V34.7971H23.2337V32.783Z" fill="#38A8AB"/>
<path d="M20.5743 32.783H18.6285V34.7971H20.5743V32.783Z" fill="#38A8AB"/>
<path d="M17.9103 32.783H15.9699V34.7971H17.9103V32.783Z" fill="#38A8AB"/>
<path d="M15.2498 32.783H13.3122V34.7971H15.2498V32.783Z" fill="#38A8AB"/>
<path d="M12.5869 32.783H10.6466V34.7971H12.5869V32.783Z" fill="#38A8AB"/>
<path d="M9.92779 32.783H7.98189V34.7971H9.92779V32.783Z" fill="#38A8AB"/>
<path d="M7.26888 32.783H5.32298V34.7971H7.26888V32.783Z" fill="#38A8AB"/>
<path d="M4.6046 32.783H2.65871V34.7971H4.6046V32.783Z" fill="#38A8AB"/>
<path d="M23.2337 30.0562H21.2874V32.0644H23.2337V30.0562Z" fill="#38A8AB"/>
<path d="M20.5743 30.0562H18.6285V32.0644H20.5743V30.0562Z" fill="#38A8AB"/>
<path d="M15.2498 30.0562H13.3122V32.0644H15.2498V30.0562Z" fill="#38A8AB"/>
<path d="M12.5869 30.0562H10.6466V32.0644H12.5869V30.0562Z" fill="#38A8AB"/>
<path d="M7.26888 30.0562H5.32298V32.0644H7.26888V30.0562Z" fill="#38A8AB"/>
<path d="M4.6046 30.0562H2.65871V32.0644H4.6046V30.0562Z" fill="#38A8AB"/>
<path d="M1.94629 30.0562H0V32.07H1.94629V30.0562Z" fill="#38A8AB"/>
<path d="M1.94649 27.324H0.000596168V29.3377H1.94649V27.324Z" fill="#38A8AB"/>
<path d="M25.8981 27.324H23.9518V29.3381H25.8981V27.324Z" fill="#38A8AB"/>
<path d="M25.8981 30.0562H23.9518V32.0644H25.8981V30.0562Z" fill="#38A8AB"/>
<path d="M23.2337 27.324H21.2874V29.3381H23.2337V27.324Z" fill="#38A8AB"/>
<path d="M15.2498 27.324H13.3122V29.3377H15.2498V27.324Z" fill="#38A8AB"/>
<path d="M12.5869 27.324H10.6466V29.3381H12.5869V27.324Z" fill="#38A8AB"/>
<path d="M4.6046 27.324H2.65871V29.3377H4.6046V27.324Z" fill="#38A8AB"/>
<path d="M25.8981 24.5916H23.9518V26.6054H25.8981V24.5916Z" fill="#38A8AB"/>
<path d="M23.2337 24.5916H21.2874V26.6054H23.2337V24.5916Z" fill="#38A8AB"/>
<path d="M20.5743 24.5916H18.6285V26.6054H20.5743V24.5916Z" fill="#38A8AB"/>
<path d="M15.2498 24.5916H13.3122V26.6054H15.2498V24.5916Z" fill="#38A8AB"/>
<path d="M12.5869 24.5916H10.6466V26.6054H12.5869V24.5916Z" fill="#38A8AB"/>
<path d="M23.2337 21.8593H21.2874V23.8675H23.2337V21.8593Z" fill="#38A8AB"/>
<path d="M20.5743 21.8593H18.6285V23.8674H20.5743V21.8593Z" fill="#38A8AB"/>
<path d="M17.9103 21.8593H15.9699V23.8675H17.9103V21.8593Z" fill="#38A8AB"/>
<path d="M15.2498 21.8593H13.3122V23.8674H15.2498V21.8593Z" fill="#38A8AB"/>
<path d="M12.5869 21.8593H10.6466V23.8675H12.5869V21.8593Z" fill="#38A8AB"/>
<path d="M9.92779 21.8593H7.98189V23.8675H9.92779V21.8593Z" fill="#38A8AB"/>
<path d="M20.5747 19.1267H18.6285V21.1404H20.5747V19.1267Z" fill="#38A8AB"/>
<path d="M17.9103 19.1267H15.9699V21.1404H17.9103V19.1267Z" fill="#38A8AB"/>
<path d="M15.2514 19.1267H13.3108V21.1404H15.2514V19.1267Z" fill="#38A8AB"/>
<path d="M12.5869 19.1267H10.6466V21.1404H12.5869V19.1267Z" fill="#38A8AB"/>
<path d="M9.92779 19.1267H7.98189V21.1404H9.92779V19.1267Z" fill="#38A8AB"/>
<path d="M7.26888 19.1267H5.32298V21.1404H7.26888V19.1267Z" fill="#38A8AB"/>
<path d="M4.6046 19.1267H2.65871V21.1404H4.6046V19.1267Z" fill="#38A8AB"/>
<path d="M15.2514 16.3942H13.3108V18.408H15.2514V16.3942Z" fill="#38A8AB"/>
<path d="M12.5869 16.3942H10.6466V18.408H12.5869V16.3942Z" fill="#38A8AB"/>
<path d="M7.26888 16.3942H5.32298V18.408H7.26888V16.3942Z" fill="#38A8AB"/>
<path d="M4.6046 16.3942H2.65871V18.408H4.6046V16.3942Z" fill="#38A8AB"/>
<path d="M15.2498 13.662H13.3122V15.6757H15.2498V13.662Z" fill="#38A8AB"/>
<path d="M12.5869 13.662H10.6466V15.6762H12.5869V13.662Z" fill="#38A8AB"/>
<path d="M4.6046 13.662H2.65871V15.6757H4.6046V13.662Z" fill="#38A8AB"/>
<path d="M23.2337 10.9296H21.2874V12.9379H23.2337V10.9296Z" fill="#38A8AB"/>
<path d="M20.5743 10.9296H18.6285V12.9379H20.5743V10.9296Z" fill="#38A8AB"/>
<path d="M15.2498 10.9296H13.3122V12.9379H15.2498V10.9296Z" fill="#38A8AB"/>
<path d="M12.5869 10.9296H10.6466V12.9379H12.5869V10.9296Z" fill="#38A8AB"/>
<path d="M7.26888 16.3942H5.32298V18.408H7.26888V16.3942Z" fill="#38A8AB"/>
<path d="M7.26888 10.9296H5.32298V12.9379H7.26888V10.9296Z" fill="#38A8AB"/>
<path d="M4.6046 16.3942H2.65871V18.408H4.6046V16.3942Z" fill="#38A8AB"/>
<path d="M4.6046 13.662H2.65871V15.6757H4.6046V13.662Z" fill="#38A8AB"/>
<path d="M4.6046 10.9296H2.65871V12.9379H4.6046V10.9296Z" fill="#38A8AB"/>
<path d="M1.94629 16.3942H0V18.408H1.94629V16.3942Z" fill="#38A8AB"/>
<path d="M1.94649 13.662H0.000596168V15.6757H1.94649V13.662Z" fill="#38A8AB"/>
<path d="M1.94649 10.9296H0.000596168V12.9434H1.94649V10.9296Z" fill="#38A8AB"/>
<path d="M7.26888 10.9296H5.32298V12.9379H7.26888V10.9296Z" fill="#38A8AB"/>
<path d="M4.6046 10.9296H2.65871V12.9379H4.6046V10.9296Z" fill="#38A8AB"/>
<path d="M23.2337 8.19731H21.2874V10.2111H23.2337V8.19731Z" fill="#38A8AB"/>
<path d="M20.5743 8.19731H18.6285V10.2111H20.5743V8.19731Z" fill="#38A8AB"/>
<path d="M17.9103 8.19731H15.9699V10.2111H17.9103V8.19731Z" fill="#38A8AB"/>
<path d="M15.2498 8.19731H13.3122V10.2111H15.2498V8.19731Z" fill="#38A8AB"/>
<path d="M12.5869 8.19731H10.6466V10.2111H12.5869V8.19731Z" fill="#38A8AB"/>
<path d="M9.92779 8.19731H7.98189V10.2111H9.92779V8.19731Z" fill="#38A8AB"/>
<path d="M7.26888 8.19731H5.32298V10.2111H7.26888V8.19731Z" fill="#38A8AB"/>
<path d="M4.6046 8.19731H2.65871V10.2111H4.6046V8.19731Z" fill="#38A8AB"/>
<path d="M17.9103 5.46457H15.9699V7.47833H17.9103V5.46457Z" fill="#38A8AB"/>
<path d="M15.2514 5.46457H13.3108V7.47833H15.2514V5.46457Z" fill="#38A8AB"/>
<path d="M12.5869 5.46457H10.6466V7.47833H12.5869V5.46457Z" fill="#38A8AB"/>
<path d="M15.2498 2.73224H13.3122V4.74053H15.2498V2.73224Z" fill="#38A8AB"/>
<path d="M12.5869 2.73224H10.6466V4.74043H12.5869V2.73224Z" fill="#38A8AB"/>
<path d="M15.2498 0H13.3122V2.01376H15.2498V0Z" fill="#38A8AB"/>
<path d="M12.5869 0H10.6466V2.01376H12.5869V0Z" fill="#38A8AB"/>
<path d="M9.92779 5.46457H7.98189V7.47833H9.92779V5.46457Z" fill="#38A8AB"/>
<path d="M15.2498 2.73224H13.3122V4.74053H15.2498V2.73224Z" fill="#38A8AB"/>
<path d="M12.5869 2.73224H10.6466V4.74043H12.5869V2.73224Z" fill="#38A8AB"/>
</g>
</g>
</svg>
