<svg width="200" height="191" viewBox="0 0 200 191" fill="none" xmlns="http://www.w3.org/2000/svg">
<g opacity="0.25" clip-path="url(#clip0_0_4)">
<path d="M71.0446 160.411H64.4685V166.937H71.0446V160.411Z" fill="#3DC7BD"/>
<path d="M62.9907 160.411H56.4145V166.937H62.9907V160.411Z" fill="#3DC7BD"/>
<path d="M54.9367 160.411H48.3606V166.937H54.9367V160.411Z" fill="#3DC7BD"/>
<path d="M46.8828 160.411H40.3066V166.937H46.8828V160.411Z" fill="#3DC7BD"/>
<path d="M38.8104 160.411H32.2342V166.937H38.8104V160.411Z" fill="#3DC7BD"/>
<path d="M87.171 152.396H80.5948V158.94H87.171V152.396Z" fill="#3DC7BD"/>
<path d="M79.117 152.396H72.5409V158.94H79.117V152.396Z" fill="#3DC7BD"/>
<path d="M79.117 160.411H72.5409V166.937H79.117V160.411Z" fill="#3DC7BD"/>
<path d="M71.0446 152.396H64.4685V158.94H71.0446V152.396Z" fill="#3DC7BD"/>
<path d="M62.9907 152.396H56.4145V158.94H62.9907V152.396Z" fill="#3DC7BD"/>
<path d="M54.9367 152.396H48.3606V158.94H54.9367V152.396Z" fill="#3DC7BD"/>
<path d="M46.8828 152.396H40.3066V158.94H46.8828V152.396Z" fill="#3DC7BD"/>
<path d="M38.8104 152.396H32.2342V158.94H38.8104V152.396Z" fill="#3DC7BD"/>
<path d="M30.738 152.396H24.1803V158.94H30.738V152.396Z" fill="#3DC7BD"/>
<path d="M30.738 160.411H24.1803V166.937H30.738V160.411Z" fill="#3DC7BD"/>
<path d="M22.7025 152.396H16.1264V158.94H22.7025V152.396Z" fill="#3DC7BD"/>
<path d="M95.2249 144.362H88.6488V150.907H95.2249V144.362Z" fill="#3DC7BD"/>
<path d="M87.171 144.362H80.5948V150.907H87.171V144.362Z" fill="#3DC7BD"/>
<path d="M79.117 144.362H72.5409V150.907H79.117V144.362Z" fill="#3DC7BD"/>
<path d="M71.0446 144.362H64.4685V150.907H71.0446V144.362Z" fill="#3DC7BD"/>
<path d="M62.9907 144.362H56.4145V150.907H62.9907V144.362Z" fill="#3DC7BD"/>
<path d="M54.9367 144.362H48.3606V150.907H54.9367V144.362Z" fill="#3DC7BD"/>
<path d="M46.8828 144.362H40.3066V150.907H46.8828V144.362Z" fill="#3DC7BD"/>
<path d="M38.8104 144.362H32.2342V150.907H38.8104V144.362Z" fill="#3DC7BD"/>
<path d="M30.738 144.362H24.1803V150.907H30.738V144.362Z" fill="#3DC7BD"/>
<path d="M22.7025 144.362H16.1264V150.907H22.7025V144.362Z" fill="#3DC7BD"/>
<path d="M14.6301 144.362H8.05394V150.907H14.6301V144.362Z" fill="#3DC7BD"/>
<path d="M95.2249 136.347H88.6488V142.892H95.2249V136.347Z" fill="#3DC7BD"/>
<path d="M87.171 136.347H80.5948V142.892H87.171V136.347Z" fill="#3DC7BD"/>
<path d="M79.117 136.347H72.5409V142.892H79.117V136.347Z" fill="#3DC7BD"/>
<path d="M71.0446 136.347H64.4685V142.892H71.0446V136.347Z" fill="#3DC7BD"/>
<path d="M62.9907 136.347H56.4145V142.892H62.9907V136.347Z" fill="#3DC7BD"/>
<path d="M54.9367 136.347H48.3606V142.892H54.9367V136.347Z" fill="#3DC7BD"/>
<path d="M46.8828 136.347H40.3066V142.892H46.8828V136.347Z" fill="#3DC7BD"/>
<path d="M38.8104 136.347H32.2342V142.892H38.8104V136.347Z" fill="#3DC7BD"/>
<path d="M30.738 136.347H24.1803V142.892H30.738V136.347Z" fill="#3DC7BD"/>
<path d="M22.7025 136.347H16.1264V142.892H22.7025V136.347Z" fill="#3DC7BD"/>
<path d="M14.6301 136.347H8.05394V142.892H14.6301V136.347Z" fill="#3DC7BD"/>
<path d="M6.57615 136.347H0V142.892H6.57615V136.347Z" fill="#3DC7BD"/>
<path d="M103.297 128.332H96.7212V134.877H103.297V128.332Z" fill="#3DC7BD"/>
<path d="M95.2249 128.332H88.6488V134.877H95.2249V128.332Z" fill="#3DC7BD"/>
<path d="M87.171 128.332H80.5948V134.877H87.171V128.332Z" fill="#3DC7BD"/>
<path d="M79.117 128.332H72.5409V134.877H79.117V128.332Z" fill="#3DC7BD"/>
<path d="M71.0446 128.332H64.4685V134.877H71.0446V128.332Z" fill="#3DC7BD"/>
<path d="M62.9907 128.332H56.4145V134.877H62.9907V128.332Z" fill="#3DC7BD"/>
<path d="M54.9367 128.332H48.3606V134.877H54.9367V128.332Z" fill="#3DC7BD"/>
<path d="M46.8828 128.332H40.3066V134.877H46.8828V128.332Z" fill="#3DC7BD"/>
<path d="M38.8104 128.332H32.2342V134.877H38.8104V128.332Z" fill="#3DC7BD"/>
<path d="M30.738 128.332H24.1803V134.877H30.738V128.332Z" fill="#3DC7BD"/>
<path d="M22.7025 128.332H16.1264V134.877H22.7025V128.332Z" fill="#3DC7BD"/>
<path d="M14.6301 128.332H8.05394V134.877H14.6301V128.332Z" fill="#3DC7BD"/>
<path d="M6.57615 128.332H0V134.877H6.57615V128.332Z" fill="#3DC7BD"/>
<path d="M103.297 120.317H96.7212V126.862H103.297V120.317Z" fill="#3DC7BD"/>
<path d="M95.2249 120.317H88.6488V126.862H95.2249V120.317Z" fill="#3DC7BD"/>
<path d="M87.171 120.317H80.5948V126.862H87.171V120.317Z" fill="#3DC7BD"/>
<path d="M79.117 120.317H72.5409V126.862H79.117V120.317Z" fill="#3DC7BD"/>
<path d="M71.0446 120.317H64.4685V126.862H71.0446V120.317Z" fill="#3DC7BD"/>
<path d="M62.9907 120.317H56.4145V126.862H62.9907V120.317Z" fill="#3DC7BD"/>
<path d="M54.9367 120.317H48.3606V126.862H54.9367V120.317Z" fill="#3DC7BD"/>
<path d="M46.8828 120.317H40.3066V126.862H46.8828V120.317Z" fill="#3DC7BD"/>
<path d="M38.8104 120.317H32.2342V126.862H38.8104V120.317Z" fill="#3DC7BD"/>
<path d="M30.738 120.317H24.1803V126.862H30.738V120.317Z" fill="#3DC7BD"/>
<path d="M22.7025 120.317H16.1264V126.862H22.7025V120.317Z" fill="#3DC7BD"/>
<path d="M14.6301 120.317H8.05394V126.862H14.6301V120.317Z" fill="#3DC7BD"/>
<path d="M6.57615 120.317H0V126.862H6.57615V120.317Z" fill="#3DC7BD"/>
<path d="M103.297 112.284H96.7212V118.828H103.297V112.284Z" fill="#3DC7BD"/>
<path d="M95.2249 112.284H88.6488V118.828H95.2249V112.284Z" fill="#3DC7BD"/>
<path d="M87.171 112.284H80.5948V118.828H87.171V112.284Z" fill="#3DC7BD"/>
<path d="M79.117 112.284H72.5409V118.828H79.117V112.284Z" fill="#3DC7BD"/>
<path d="M71.0446 112.284H64.4685V118.828H71.0446V112.284Z" fill="#3DC7BD"/>
<path d="M62.9907 112.284H56.4145V118.828H62.9907V112.284Z" fill="#3DC7BD"/>
<path d="M54.9367 112.284H48.3606V118.828H54.9367V112.284Z" fill="#3DC7BD"/>
<path d="M46.8828 112.284H40.3066V118.828H46.8828V112.284Z" fill="#3DC7BD"/>
<path d="M38.8104 112.284H32.2342V118.828H38.8104V112.284Z" fill="#3DC7BD"/>
<path d="M30.738 112.284H24.1803V118.828H30.738V112.284Z" fill="#3DC7BD"/>
<path d="M22.7025 112.284H16.1264V118.828H22.7025V112.284Z" fill="#3DC7BD"/>
<path d="M14.6301 112.284H8.05394V118.828H14.6301V112.284Z" fill="#3DC7BD"/>
<path d="M6.57615 112.284H0V118.828H6.57615V112.284Z" fill="#3DC7BD"/>
<path d="M103.297 104.269H96.7212V110.813H103.297V104.269Z" fill="#3DC7BD"/>
<path d="M95.2249 104.269H88.6488V110.813H95.2249V104.269Z" fill="#3DC7BD"/>
<path d="M87.171 104.269H80.5948V110.813H87.171V104.269Z" fill="#3DC7BD"/>
<path d="M79.117 104.269H72.5409V110.813H79.117V104.269Z" fill="#3DC7BD"/>
<path d="M71.0446 104.269H64.4685V110.813H71.0446V104.269Z" fill="#3DC7BD"/>
<path d="M62.9907 104.269H56.4145V110.813H62.9907V104.269Z" fill="#3DC7BD"/>
<path d="M54.9367 104.269H48.3606V110.813H54.9367V104.269Z" fill="#3DC7BD"/>
<path d="M46.8828 104.269H40.3066V110.813H46.8828V104.269Z" fill="#3DC7BD"/>
<path d="M38.8104 104.269H32.2342V110.813H38.8104V104.269Z" fill="#3DC7BD"/>
<path d="M30.738 104.269H24.1803V110.813H30.738V104.269Z" fill="#3DC7BD"/>
<path d="M22.7025 104.269H16.1264V110.813H22.7025V104.269Z" fill="#3DC7BD"/>
<path d="M14.6301 104.269H8.05394V110.813H14.6301V104.269Z" fill="#3DC7BD"/>
<path d="M6.57615 104.269H0V110.813H6.57615V104.269Z" fill="#3DC7BD"/>
<path d="M103.297 96.2537H96.7212V102.798H103.297V96.2537Z" fill="#3DC7BD"/>
<path d="M95.2249 96.2537H88.6488V102.798H95.2249V96.2537Z" fill="#3DC7BD"/>
<path d="M87.171 96.2537H80.5948V102.798H87.171V96.2537Z" fill="#3DC7BD"/>
<path d="M79.117 96.2537H72.5409V102.798H79.117V96.2537Z" fill="#3DC7BD"/>
<path d="M71.0446 96.2537H64.4685V102.798H71.0446V96.2537Z" fill="#3DC7BD"/>
<path d="M62.9907 96.2537H56.4145V102.798H62.9907V96.2537Z" fill="#3DC7BD"/>
<path d="M54.9367 96.2537H48.3606V102.798H54.9367V96.2537Z" fill="#3DC7BD"/>
<path d="M46.8828 96.2537H40.3066V102.798H46.8828V96.2537Z" fill="#3DC7BD"/>
<path d="M38.8104 96.2537H32.2342V102.798H38.8104V96.2537Z" fill="#3DC7BD"/>
<path d="M30.738 96.2537H24.1803V102.798H30.738V96.2537Z" fill="#3DC7BD"/>
<path d="M22.7025 96.2537H16.1264V102.798H22.7025V96.2537Z" fill="#3DC7BD"/>
<path d="M14.6301 96.2537H8.05394V102.798H14.6301V96.2537Z" fill="#3DC7BD"/>
<path d="M6.57615 96.2537H0V102.798H6.57615V96.2537Z" fill="#3DC7BD"/>
<path d="M95.2249 88.2203H88.6488V94.7647H95.2249V88.2203Z" fill="#3DC7BD"/>
<path d="M103.297 88.2203H96.7212V94.7647H103.297V88.2203Z" fill="#3DC7BD"/>
<path d="M87.171 88.2203H80.5948V94.7647H87.171V88.2203Z" fill="#3DC7BD"/>
<path d="M79.117 88.2203H72.5409V94.7647H79.117V88.2203Z" fill="#3DC7BD"/>
<path d="M71.0446 88.2203H64.4685V94.7647H71.0446V88.2203Z" fill="#3DC7BD"/>
<path d="M62.9907 88.2203H56.4145V94.7647H62.9907V88.2203Z" fill="#3DC7BD"/>
<path d="M54.9367 88.2203H48.3606V94.7647H54.9367V88.2203Z" fill="#3DC7BD"/>
<path d="M46.8828 88.2203H40.3066V94.7647H46.8828V88.2203Z" fill="#3DC7BD"/>
<path d="M38.8104 88.2203H32.2342V94.7647H38.8104V88.2203Z" fill="#3DC7BD"/>
<path d="M30.738 88.2203H24.1803V94.7647H30.738V88.2203Z" fill="#3DC7BD"/>
<path d="M22.7025 88.2203H16.1264V94.7647H22.7025V88.2203Z" fill="#3DC7BD"/>
<path d="M14.6301 88.2203H8.05394V94.7647H14.6301V88.2203Z" fill="#3DC7BD"/>
<path d="M6.57615 88.2203H0V94.7647H6.57615V88.2203Z" fill="#3DC7BD"/>
<path d="M95.2249 80.2053H88.6488V86.7497H95.2249V80.2053Z" fill="#3DC7BD"/>
<path d="M87.171 80.2053H80.5948V86.7497H87.171V80.2053Z" fill="#3DC7BD"/>
<path d="M79.117 80.2053H72.5409V86.7497H79.117V80.2053Z" fill="#3DC7BD"/>
<path d="M71.0446 80.2053H64.4685V86.7497H71.0446V80.2053Z" fill="#3DC7BD"/>
<path d="M62.9907 80.2053H56.4145V86.7497H62.9907V80.2053Z" fill="#3DC7BD"/>
<path d="M54.9367 80.2053H48.3606V86.7497H54.9367V80.2053Z" fill="#3DC7BD"/>
<path d="M46.8828 80.2053H40.3066V86.7497H46.8828V80.2053Z" fill="#3DC7BD"/>
<path d="M38.8104 80.2053H32.2342V86.7497H38.8104V80.2053Z" fill="#3DC7BD"/>
<path d="M30.738 80.2053H24.1803V86.7497H30.738V80.2053Z" fill="#3DC7BD"/>
<path d="M22.7025 80.2053H16.1264V86.7497H22.7025V80.2053Z" fill="#3DC7BD"/>
<path d="M14.6301 80.2053H8.05394V86.7497H14.6301V80.2053Z" fill="#3DC7BD"/>
<path d="M87.171 72.1903H80.5948V78.7346H87.171V72.1903Z" fill="#3DC7BD"/>
<path d="M79.117 72.1903H72.5409V78.7346H79.117V72.1903Z" fill="#3DC7BD"/>
<path d="M71.0446 72.1903H64.4685V78.7346H71.0446V72.1903Z" fill="#3DC7BD"/>
<path d="M62.9907 72.1903H56.4145V78.7346H62.9907V72.1903Z" fill="#3DC7BD"/>
<path d="M54.9367 72.1903H48.3606V78.7346H54.9367V72.1903Z" fill="#3DC7BD"/>
<path d="M46.8828 72.1903H40.3066V78.7346H46.8828V72.1903Z" fill="#3DC7BD"/>
<path d="M38.8104 72.1903H32.2342V78.7346H38.8104V72.1903Z" fill="#3DC7BD"/>
<path d="M30.738 72.1903H24.1803V78.7346H30.738V72.1903Z" fill="#3DC7BD"/>
<path d="M22.7025 72.1903H16.1264V78.7346H22.7025V72.1903Z" fill="#3DC7BD"/>
<path d="M79.117 64.1569H72.5409V70.7012H79.117V64.1569Z" fill="#3DC7BD"/>
<path d="M71.0446 64.1569H64.4685V70.7012H71.0446V64.1569Z" fill="#3DC7BD"/>
<path d="M62.9907 64.1569H56.4145V70.7012H62.9907V64.1569Z" fill="#3DC7BD"/>
<path d="M54.9367 64.1569H48.3606V70.7012H54.9367V64.1569Z" fill="#3DC7BD"/>
<path d="M46.8828 64.1569H40.3066V70.7012H46.8828V64.1569Z" fill="#3DC7BD"/>
<path d="M38.8104 64.1569H32.2342V70.7012H38.8104V64.1569Z" fill="#3DC7BD"/>
<path d="M30.738 64.1569H24.1803V70.7012H30.738V64.1569Z" fill="#3DC7BD"/>
<path d="M103.297 136.347H96.7212V142.892H103.297V136.347Z" fill="#3DC7BD"/>
<path d="M151.639 48.1269H145.063V54.6712H151.639V48.1269Z" fill="#3DC7BD"/>
<path d="M143.586 48.1269H137.009V54.6712H143.586V48.1269Z" fill="#3DC7BD"/>
<path d="M135.532 48.1269H128.955V54.6712H135.532V48.1269Z" fill="#3DC7BD"/>
<path d="M127.478 48.1269H120.901V54.6712H127.478V48.1269Z" fill="#3DC7BD"/>
<path d="M159.712 40.1118H153.136V46.6562H159.712V40.1118Z" fill="#3DC7BD"/>
<path d="M151.639 40.1118H145.063V46.6562H151.639V40.1118Z" fill="#3DC7BD"/>
<path d="M143.586 40.1118H137.009V46.6562H143.586V40.1118Z" fill="#3DC7BD"/>
<path d="M135.532 40.1118H128.955V46.6562H135.532V40.1118Z" fill="#3DC7BD"/>
<path d="M127.478 40.1118H120.901V46.6562H127.478V40.1118Z" fill="#3DC7BD"/>
<path d="M119.405 40.1118H112.829V46.6562H119.405V40.1118Z" fill="#3DC7BD"/>
<path d="M167.766 32.0784H161.19V38.6228H167.766V32.0784Z" fill="#3DC7BD"/>
<path d="M159.712 32.0784H153.136V38.6228H159.712V32.0784Z" fill="#3DC7BD"/>
<path d="M151.639 32.0784H145.063V38.6228H151.639V32.0784Z" fill="#3DC7BD"/>
<path d="M143.586 32.0784H137.009V38.6228H143.586V32.0784Z" fill="#3DC7BD"/>
<path d="M135.532 32.0784H128.955V38.6228H135.532V32.0784Z" fill="#3DC7BD"/>
<path d="M127.478 32.0784H120.901V38.6228H127.478V32.0784Z" fill="#3DC7BD"/>
<path d="M119.405 32.0784H112.829V38.6228H119.405V32.0784Z" fill="#3DC7BD"/>
<path d="M111.351 32.0784H104.775V38.6228H111.351V32.0784Z" fill="#3DC7BD"/>
<path d="M167.766 24.0634H161.19V30.6078H167.766V24.0634Z" fill="#3DC7BD"/>
<path d="M159.712 24.0634H153.136V30.6078H159.712V24.0634Z" fill="#3DC7BD"/>
<path d="M151.639 24.0634H145.063V30.6078H151.639V24.0634Z" fill="#3DC7BD"/>
<path d="M143.586 24.0634H137.009V30.6078H143.586V24.0634Z" fill="#3DC7BD"/>
<path d="M135.532 24.0634H128.955V30.6078H135.532V24.0634Z" fill="#3DC7BD"/>
<path d="M127.478 24.0634H120.901V30.6078H127.478V24.0634Z" fill="#3DC7BD"/>
<path d="M119.405 24.0634H112.829V30.6078H119.405V24.0634Z" fill="#3DC7BD"/>
<path d="M111.351 24.0634H104.775V30.6078H111.351V24.0634Z" fill="#3DC7BD"/>
<path d="M167.766 16.0484H161.19V22.5928H167.766V16.0484Z" fill="#3DC7BD"/>
<path d="M159.712 16.0484H153.136V22.5928H159.712V16.0484Z" fill="#3DC7BD"/>
<path d="M151.639 16.0484H145.063V22.5928H151.639V16.0484Z" fill="#3DC7BD"/>
<path d="M143.586 16.0484H137.009V22.5928H143.586V16.0484Z" fill="#3DC7BD"/>
<path d="M135.532 16.0484H128.955V22.5928H135.532V16.0484Z" fill="#3DC7BD"/>
<path d="M127.478 16.0484H120.901V22.5928H127.478V16.0484Z" fill="#3DC7BD"/>
<path d="M119.405 16.0484H112.829V22.5928H119.405V16.0484Z" fill="#3DC7BD"/>
<path d="M111.351 16.0484H104.775V22.5928H111.351V16.0484Z" fill="#3DC7BD"/>
<path d="M159.712 8.01501H153.136V14.5594H159.712V8.01501Z" fill="#3DC7BD"/>
<path d="M151.639 8.01501H145.063V14.5594H151.639V8.01501Z" fill="#3DC7BD"/>
<path d="M143.586 8.01501H137.009V14.5594H143.586V8.01501Z" fill="#3DC7BD"/>
<path d="M135.532 8.01501H128.955V14.5594H135.532V8.01501Z" fill="#3DC7BD"/>
<path d="M127.478 8.01501H120.901V14.5594H127.478V8.01501Z" fill="#3DC7BD"/>
<path d="M119.405 8.01501H112.829V14.5594H119.405V8.01501Z" fill="#3DC7BD"/>
<path d="M151.658 0H145.082V6.54437H151.658V0Z" fill="#3DC7BD"/>
<path d="M143.586 0H137.009V6.54437H143.586V0Z" fill="#3DC7BD"/>
<path d="M135.532 0H128.955V6.54437H135.532V0Z" fill="#3DC7BD"/>
<path d="M127.478 0H120.901V6.54437H127.478V0Z" fill="#3DC7BD"/>
<path d="M183.892 184.474H177.316V191.018H183.892V184.474Z" fill="#73ABB2"/>
<path d="M175.82 184.474H169.244V191.018H175.82V184.474Z" fill="#73ABB2"/>
<path d="M167.766 184.474H161.19V191.018H167.766V184.474Z" fill="#73ABB2"/>
<path d="M159.712 184.474H153.136V191.018H159.712V184.474Z" fill="#73ABB2"/>
<path d="M191.946 176.459H185.37V183.003H191.946V176.459Z" fill="#73ABB2"/>
<path d="M183.892 176.459H177.316V183.003H183.892V176.459Z" fill="#73ABB2"/>
<path d="M175.82 176.459H169.244V183.003H175.82V176.459Z" fill="#73ABB2"/>
<path d="M167.766 176.459H161.19V183.003H167.766V176.459Z" fill="#73ABB2"/>
<path d="M159.712 176.459H153.136V183.003H159.712V176.459Z" fill="#73ABB2"/>
<path d="M151.658 176.459H145.082V183.003H151.658V176.459Z" fill="#73ABB2"/>
<path d="M191.946 168.426H185.37V174.97H191.946V168.426Z" fill="#73ABB2"/>
<path d="M183.892 168.426H177.316V174.97H183.892V168.426Z" fill="#73ABB2"/>
<path d="M175.82 168.426H169.244V174.97H175.82V168.426Z" fill="#73ABB2"/>
<path d="M167.766 168.426H161.19V174.97H167.766V168.426Z" fill="#73ABB2"/>
<path d="M159.712 168.426H153.136V174.97H159.712V168.426Z" fill="#73ABB2"/>
<path d="M151.658 168.426H145.082V174.97H151.658V168.426Z" fill="#73ABB2"/>
<path d="M191.946 160.411H185.37V166.937H191.946V160.411Z" fill="#73ABB2"/>
<path d="M183.892 160.411H177.316V166.937H183.892V160.411Z" fill="#73ABB2"/>
<path d="M175.82 160.411H169.244V166.937H175.82V160.411Z" fill="#73ABB2"/>
<path d="M167.766 160.411H161.19V166.937H167.766V160.411Z" fill="#73ABB2"/>
<path d="M159.712 160.411H153.136V166.937H159.712V160.411Z" fill="#73ABB2"/>
<path d="M151.658 160.411H145.082V166.937H151.658V160.411Z" fill="#73ABB2"/>
<path d="M200 168.426H193.424V174.97H200V168.426Z" fill="#73ABB2"/>
<path d="M200 160.411H193.424V166.937H200V160.411Z" fill="#73ABB2"/>
<path d="M200 152.396H193.424V158.94H200V152.396Z" fill="#73ABB2"/>
<path d="M191.946 152.396H185.37V158.94H191.946V152.396Z" fill="#73ABB2"/>
<path d="M183.892 152.396H177.316V158.94H183.892V152.396Z" fill="#73ABB2"/>
<path d="M175.82 152.396H169.244V158.94H175.82V152.396Z" fill="#73ABB2"/>
<path d="M167.766 152.396H161.19V158.94H167.766V152.396Z" fill="#73ABB2"/>
<path d="M159.712 152.396H153.136V158.94H159.712V152.396Z" fill="#73ABB2"/>
<path d="M151.658 152.396H145.082V158.94H151.658V152.396Z" fill="#73ABB2"/>
<path d="M191.946 144.362H185.37V150.907H191.946V144.362Z" fill="#73ABB2"/>
<path d="M183.892 144.362H177.316V150.907H183.892V144.362Z" fill="#73ABB2"/>
<path d="M175.82 144.362H169.244V150.907H175.82V144.362Z" fill="#73ABB2"/>
<path d="M167.766 144.362H161.19V150.907H167.766V144.362Z" fill="#73ABB2"/>
<path d="M159.712 144.362H153.136V150.907H159.712V144.362Z" fill="#73ABB2"/>
<path d="M151.658 144.362H145.082V150.907H151.658V144.362Z" fill="#73ABB2"/>
<path d="M183.892 136.347H177.316V142.892H183.892V136.347Z" fill="#73ABB2"/>
<path d="M175.82 136.347H169.244V142.892H175.82V136.347Z" fill="#73ABB2"/>
<path d="M167.766 136.347H161.19V142.892H167.766V136.347Z" fill="#73ABB2"/>
<path d="M159.712 136.347H153.136V142.892H159.712V136.347Z" fill="#73ABB2"/>
<path d="M143.586 168.426H137.009V174.97H143.586V168.426Z" fill="#73ABB2"/>
<path d="M143.586 160.411H137.009V166.937H143.586V160.411Z" fill="#73ABB2"/>
<path d="M143.586 152.396H137.009V158.94H143.586V152.396Z" fill="#73ABB2"/>
<path d="M119.405 144.362H112.829V150.907H119.405V144.362Z" fill="#B28FA8"/>
<path d="M111.351 144.362H104.775V150.907H111.351V144.362Z" fill="#B28FA8"/>
<path d="M135.532 144.362H128.955V150.907H135.532V144.362Z" fill="#B28FA8"/>
<path d="M127.478 144.362H120.901V150.907H127.478V144.362Z" fill="#B28FA8"/>
<path d="M103.297 64.1569H96.7212V70.7012H103.297V64.1569Z" fill="#B28FA8"/>
<path d="M111.351 56.1419H104.775V62.6862H111.351V56.1419Z" fill="#B28FA8"/>
</g>
<defs>
<clipPath>
<rect width="200" height="191" fill="white"/>
</clipPath>
</defs>
</svg>
